<svg width="167" height="150" viewBox="0 0 167 150" fill="none" xmlns="http://www.w3.org/2000/svg">
<mask id="mask0_501_8669" style="mask-type:luminance" maskUnits="userSpaceOnUse" x="1" y="147" width="166" height="3">
<path d="M1.85059 147.293H166.969V149.584H1.85059V147.293Z" fill="white"/>
</mask>
<g mask="url(#mask0_501_8669)">
<path d="M1.96289 148.043H166.856V149.58H1.96289V148.043Z" fill="#1A3A49"/>
</g>
<path d="M82.1986 47.0182C82.8693 48.8088 92.05 55.4865 92.05 55.4865L97.8068 50.1982C97.8068 50.1982 95.275 42.0156 93.831 41.6818C92.403 41.3577 93.0512 45.5229 93.0512 45.5229C92.5057 44.8265 88.4464 39.6538 87.5864 41.1139C87.2752 41.6433 87.6955 43.0456 88.0004 43.559C86.7136 42.3236 84.5508 40.9053 84.0887 41.5952C83.4469 42.5579 85.0482 44.0179 85.629 44.5057C85.0193 44.0307 83.1966 42.7376 82.7634 43.8093C82.4971 44.4607 83.8256 45.6801 84.3903 46.293C83.8224 45.9978 81.759 45.8502 82.1986 47.0182Z" fill="#FEC3BD"/>
<mask id="mask1_501_8669" style="mask-type:luminance" maskUnits="userSpaceOnUse" x="29" y="98" width="21" height="52">
<path d="M29.7803 98.3711H49.4959V149.586H29.7803V98.3711Z" fill="white"/>
</mask>
<g mask="url(#mask1_501_8669)">
<path d="M33.0465 148.611H48.9788L46.1164 99.6758L30.0205 101.202L30.0333 101.362L33.0465 148.611Z" fill="#0E1738"/>
</g>
<mask id="mask2_501_8669" style="mask-type:luminance" maskUnits="userSpaceOnUse" x="29" y="100" width="6" height="31">
<path d="M29.7803 100.016H34.7092V130.237H29.7803V100.016Z" fill="white"/>
</mask>
<g mask="url(#mask2_501_8669)">
<path d="M33.2656 129.627L34.2667 101.222L30.0342 100.23L33.0474 129.627H33.2656Z" fill="#06112D"/>
</g>
<mask id="mask3_501_8669" style="mask-type:luminance" maskUnits="userSpaceOnUse" x="12" y="96" width="22" height="54">
<path d="M12.5293 96.7266H33.0664V149.586H12.5293V96.7266Z" fill="white"/>
</mask>
<g mask="url(#mask3_501_8669)">
<path d="M31.8657 148.624L32.87 103.814L13.7064 96.7266L13.0518 148.624H31.8657Z" fill="#0E1738"/>
</g>
<path d="M32.1651 14.1938C32.2903 15.84 33.0861 17.422 34.3183 18.4809C36.1025 20.0148 38.753 20.3485 40.8677 19.3634C41.8753 18.8917 42.8252 18.0413 42.9631 16.9118C43.0883 15.9106 42.5524 14.9544 42.0101 14.1136C40.6367 12.0022 39.0579 10.0447 37.293 8.27344L33.6316 9.60513C32.5759 10.8502 32.0368 12.5413 32.1651 14.1938Z" fill="#06112D"/>
<path d="M83.9956 70.9405L81.8938 81.2314L60.6219 82.2551L47.9884 82.8648L47.5487 81.9149L37.9701 61.3267L32.1523 48.8216L39.2954 42.9141C42.8027 42.9141 52.9237 57.5274 58.8441 67.3081L83.9956 70.9405Z" fill="#FCC283"/>
<path d="M60.6215 82.2565L47.5483 81.9164L37.9697 61.3281C40.2448 56.0078 43.3254 49.2852 43.3254 49.2852L60.6215 82.2565Z" fill="#FE8B70"/>
<path d="M47.9916 100.576C48.0526 103.727 11.9972 103.634 11.9394 100.483C12.0132 99.3628 12.1063 97.8417 12.2154 96.1186C12.2796 95.0757 12.3149 93.9975 12.3309 92.9193C12.4047 87.4963 11.9362 82.0861 11.8367 80.9212C11.7341 79.7789 11.1821 75.3185 10.6655 69.9725C9.83438 61.4016 9.09954 50.5523 10.473 47.4717C12.5941 42.713 21.5084 42.1707 21.5084 42.1707L31.9727 41.4775C31.9727 41.4775 38.0215 41.1887 40.6111 43.9227C46.4867 50.1095 46.1433 76.2331 46.1433 76.2331C46.1433 76.2331 47.1477 93.8788 47.9916 100.576Z" fill="#FCC283"/>
<path d="M33.5488 76.7428L32.7851 87.9098C32.7851 87.9098 18.99 92.6236 12.3314 92.9221C12.4052 87.499 11.9367 82.0888 11.8373 80.924C11.7346 79.7817 11.1827 75.3213 10.666 69.9753L18.5343 51.4375C18.5343 51.4375 21.1592 53.3468 20.8864 58.7377C20.7484 61.4685 17.6454 73.9286 17.6454 73.9286L33.5488 76.7428Z" fill="#FE8B70"/>
<path d="M29.697 47.4717C25.2751 47.2599 21.3506 42.3182 21.3442 42.1706C21.1805 38.6152 20.4297 30.41 19.6948 27.8686C19.5312 27.3103 20.0093 26.784 20.5163 26.9605L31.3753 30.6796C31.709 30.7951 31.9047 31.1802 31.8149 31.5524C31.6769 32.1332 31.5806 32.714 31.51 33.2756C31.4876 33.481 31.4683 33.6799 31.4491 33.8789C31.3111 35.5796 31.4362 37.1263 31.6063 38.259C31.6448 38.5061 31.6897 38.9361 31.7475 39.4335C31.7475 39.4367 31.7475 39.4367 31.7475 39.4367C31.8791 40.7074 31.924 41.4679 31.9753 41.654C31.9978 41.7471 32.1968 47.5905 29.697 47.4717Z" fill="#FEC3BD"/>
<path d="M31.748 39.4339C31.748 39.4371 31.748 39.4371 31.748 39.4371C31.748 39.4371 25.7313 36.9983 24.6691 34.9061C23.2668 32.1401 30.5703 33.4814 30.5703 33.4814C30.5703 33.4814 30.9522 33.6515 31.4495 33.8793C31.3116 35.58 31.4367 37.1267 31.6068 38.2594C31.6453 38.5065 31.6902 38.9365 31.748 39.4339Z" fill="#F18B89"/>
<path d="M34.3211 37.2219C27.7653 38.99 21.9091 32.3797 20.3078 29.6297V29.6264C20.0254 29.1387 19.8329 28.76 19.7334 28.5515C19.6756 28.4359 19.5922 28.3429 19.4863 28.2723C18.6392 27.7043 14.8045 24.9639 15.7672 22.5316C16.3961 20.9496 17.4711 20.7635 18.2637 20.8854C18.729 20.956 19.1333 20.5453 19.0692 20.08C17.3652 7.38561 31.3272 7.93754 35.1715 13.6654C35.3384 13.9157 35.5117 14.2238 35.6849 14.5832C38.1847 19.7046 41.3679 35.319 34.3211 37.2219Z" fill="#FEC3BD"/>
<path d="M29.511 23.611C29.5207 23.7715 29.5046 23.9255 29.4725 24.0763C29.4372 24.2239 29.3859 24.3587 29.3153 24.4742C29.2479 24.5897 29.1645 24.6796 29.0682 24.747C28.9719 24.8111 28.8725 24.8464 28.7666 24.8529C28.6607 24.8561 28.558 24.8304 28.4553 24.7759C28.3558 24.7181 28.2628 24.6347 28.1826 24.5256C28.1023 24.4165 28.0414 24.2881 27.9932 24.1437C27.9451 23.9993 27.9194 23.8453 27.9098 23.6848C27.9034 23.5276 27.9162 23.3704 27.9515 23.2227C27.9836 23.0719 28.0349 22.9404 28.1055 22.8248C28.1761 22.7093 28.2596 22.6163 28.3526 22.5521C28.4489 22.4847 28.5516 22.4494 28.6575 22.4462C28.7634 22.4398 28.8661 22.4687 28.9655 22.5232C29.0682 22.581 29.1581 22.6644 29.2383 22.7735C29.3185 22.8826 29.3827 23.0078 29.4308 23.1554C29.479 23.2998 29.5046 23.4538 29.511 23.611Z" fill="#06112D"/>
<path d="M27.4932 21.8325C27.4386 21.8325 27.3809 21.8068 27.3423 21.7587C27.2782 21.6784 27.291 21.5565 27.3744 21.4891C28.9115 20.2633 29.8742 21.1008 29.9127 21.1361C29.9929 21.2067 29.9993 21.3287 29.9287 21.4089C29.8581 21.4859 29.7362 21.4923 29.6592 21.4249C29.6239 21.3961 28.8826 20.7767 27.6119 21.7908C27.5766 21.8196 27.5349 21.8325 27.4932 21.8325Z" fill="#06112D"/>
<path d="M36.2884 23.611C36.2948 23.7715 36.282 23.9255 36.2499 24.0763C36.2146 24.2239 36.1633 24.3587 36.0927 24.4742C36.0221 24.5897 35.9418 24.6796 35.8456 24.747C35.7493 24.8111 35.6498 24.8464 35.5439 24.8529C35.438 24.8561 35.3321 24.8304 35.2327 24.7759C35.13 24.7181 35.0401 24.6347 34.9599 24.5256C34.8797 24.4165 34.8155 24.2881 34.7674 24.1437C34.7224 23.9993 34.6936 23.8453 34.6872 23.6848C34.6807 23.5276 34.6936 23.3704 34.7257 23.2227C34.761 23.0719 34.8123 22.9404 34.8829 22.8248C34.9535 22.7093 35.0337 22.6163 35.13 22.5521C35.2262 22.4847 35.3257 22.4494 35.4316 22.4462C35.5375 22.4398 35.6434 22.4687 35.7429 22.5232C35.8456 22.581 35.9354 22.6644 36.0156 22.7735C36.0959 22.8826 36.16 23.0078 36.205 23.1554C36.2531 23.2998 36.282 23.4538 36.2884 23.611Z" fill="#06112D"/>
<path d="M34.2702 21.8325C34.2124 21.8325 34.1578 21.8068 34.1193 21.7587C34.0519 21.6784 34.068 21.5565 34.1482 21.4891C35.6885 20.2633 36.648 21.1008 36.6897 21.1361C36.7667 21.2067 36.7731 21.3287 36.7025 21.4089C36.6319 21.4859 36.5132 21.4923 36.433 21.4249C36.4009 21.3961 35.6596 20.7767 34.3889 21.7908C34.3536 21.8196 34.3119 21.8325 34.2702 21.8325Z" fill="#06112D"/>
<path d="M33.477 29.9202C33.4257 29.9202 33.3711 29.8978 33.3326 29.856C33.262 29.7758 33.2717 29.6539 33.3487 29.5833C33.5829 29.3747 33.7177 29.0987 33.7273 28.8035C33.7337 28.5179 33.6214 28.242 33.4096 28.027C33.3166 27.9339 33.2075 27.8505 33.092 27.7606C33.0149 27.7029 32.9379 27.6451 32.8673 27.5841C32.3571 27.1509 32.017 26.5445 31.879 25.8289C31.757 25.2031 31.7956 24.571 31.8309 23.9613C31.8373 23.8554 31.9303 23.7752 32.0362 23.7816C32.1421 23.788 32.2223 23.8779 32.2159 23.9838C32.1806 24.571 32.1421 25.1775 32.2544 25.7551C32.3764 26.384 32.6748 26.9135 33.1144 27.2889C33.1818 27.3467 33.2524 27.4012 33.3262 27.4558C33.4449 27.5488 33.5733 27.6451 33.6824 27.7574C33.9712 28.0462 34.122 28.4217 34.1092 28.8164C34.0996 29.2175 33.9199 29.5929 33.6054 29.8721C33.5701 29.9042 33.522 29.9202 33.477 29.9202Z" fill="#F18B89"/>
<path d="M31.4786 33.2533C30.4549 33.2533 29.4409 32.7142 28.8697 31.8607C28.8119 31.774 28.8344 31.6553 28.9243 31.5943C29.0109 31.5366 29.1296 31.559 29.1874 31.6489C29.7072 32.4222 30.6378 32.9003 31.5716 32.865C31.6775 32.8618 31.7674 32.9453 31.7706 33.0512C31.777 33.157 31.6936 33.2469 31.5877 33.2501C31.5492 33.2501 31.5139 33.2533 31.4786 33.2533Z" fill="#F18B89"/>
<path d="M31.4786 33.2533C30.4549 33.2533 29.4409 32.7142 28.8697 31.8607C28.8119 31.774 28.8344 31.6553 28.9243 31.5943C29.0109 31.5366 29.1296 31.559 29.1874 31.6489C29.7072 32.4222 30.6378 32.9003 31.5716 32.865C31.6775 32.8618 31.7674 32.9453 31.7706 33.0512C31.777 33.157 31.6936 33.2469 31.5877 33.2501C31.5492 33.2501 31.5139 33.2533 31.4786 33.2533Z" fill="#F18B89"/>
<mask id="mask4_501_8669" style="mask-type:luminance" maskUnits="userSpaceOnUse" x="10" y="0" width="35" height="39">
<path d="M10.0654 0.238281H44.5677V38.4049H10.0654V0.238281Z" fill="white"/>
</mask>
<g mask="url(#mask4_501_8669)">
<path d="M21.3249 22.8C21.3152 23.1562 21.0457 23.4546 20.6927 23.4996C20.359 23.5413 20.0381 23.3455 19.9226 23.0311L19.361 21.5004C19.2936 21.3143 19.1492 21.1603 18.9663 21.0833C18.2892 20.8073 16.6174 20.3901 15.767 22.5337C14.8043 24.966 18.639 27.7064 19.4862 28.2744C19.5921 28.345 19.6755 28.4381 19.7332 28.5536C19.8327 28.7622 20.0253 29.1408 20.3076 29.6318L20.9205 32.0384C21.097 32.7251 21.0874 38.3696 21.0874 38.3696C18.6839 35.2249 16.5949 31.2875 14.7209 27.8027C12.388 23.4707 10.7547 18.6253 10.3279 13.7028C10.2252 12.4931 10.2477 11.1325 11.0884 10.2597C12.2051 9.09806 14.2492 9.31947 15.3819 8.17389C16.0879 7.45831 16.258 6.38654 16.6334 5.45275C17.5191 3.26429 19.6338 1.76253 21.8832 1.04374C24.1327 0.328153 26.5297 0.286436 28.8883 0.251139C30.5537 0.225468 32.3828 0.257557 33.6407 1.34858C34.5392 2.13155 34.9917 3.33809 35.9126 4.09218C37.1416 5.09978 38.8937 5.07731 40.3794 5.63566C42.8599 6.56624 44.5029 9.34835 44.1242 11.9732C44.0087 12.7594 43.7039 13.5648 43.0685 14.043C42.4331 14.5211 41.4191 14.5371 40.9185 13.9178C40.7067 15.9426 38.5343 17.2904 36.5031 17.316C34.4686 17.3385 32.5689 16.3855 30.7623 15.4581C30.5152 17.3224 28.4423 18.7183 26.6228 18.2466C25.2879 17.8968 24.1455 16.7256 22.7721 16.8572C21.6169 16.9695 20.7408 18.2049 20.8628 19.3344C20.9077 19.7708 21.158 20.1591 21.2382 20.5891C21.3698 21.2854 21.3441 22.0973 21.3249 22.8Z" fill="#06112D"/>
</g>
<path d="M57.9551 89.1817H83.9987V68.173L70.9769 55.4883L57.9551 68.173V89.1817Z" fill="#EAE8FE"/>
<path d="M82.7436 82.2171C82.9233 82.3872 83.164 82.4835 83.4303 82.4738L84.9802 82.3776C85.5097 82.3583 85.9236 81.9123 85.9044 81.3828C85.8819 80.8533 85.4391 80.4362 84.9096 80.4554C85.4391 80.4362 85.8563 79.9902 85.8338 79.4639C85.8177 78.9312 85.3717 78.5141 84.8422 78.5333C85.3717 78.5141 85.7889 78.068 85.7664 77.5386C85.7504 77.0091 85.3043 76.5951 84.7748 76.6112C85.3043 76.5951 85.7183 76.1491 85.699 75.6164C85.683 75.087 85.2337 74.6698 84.7075 74.6923L83.1576 74.7885C82.6313 74.8046 82.2173 75.2506 82.2366 75.7801C82.2462 76.0432 82.3617 76.2807 82.5414 76.4507C82.7179 76.6176 82.9618 76.7171 83.2281 76.7075C82.6987 76.7267 82.2879 77.1727 82.304 77.7022C82.3136 77.9686 82.4291 78.206 82.6088 78.3729C82.7853 78.5397 83.0292 78.6392 83.2955 78.6296L82.612 78.6553C82.0858 78.6713 81.6718 79.1173 81.6911 79.65C81.7007 79.9099 81.8162 80.1506 81.9959 80.3175C82.1724 80.4875 82.4131 80.587 82.6794 80.5774L83.3629 80.5517C82.8335 80.571 82.4227 81.017 82.442 81.5465C82.4484 81.8096 82.5671 82.0471 82.7436 82.2171Z" fill="#FEC3BD"/>
<path d="M36.9717 68.1719H57.9548V89.1805H36.9717V68.1719Z" fill="#3A6DC9"/>
<path d="M46.0397 57.6055H68.8391L57.9545 68.1756H35.8129C35.5273 68.1756 35.3861 67.8258 35.5915 67.6268L45.8183 57.6953C45.8793 57.6376 45.9595 57.6055 46.0397 57.6055Z" fill="#1C5AB5"/>
<path d="M36.9717 68.1719H57.9548V68.8746H36.9717V68.1719Z" fill="black" fill-opacity="0.05"/>
<path d="M57.5373 69.6728L70.9763 56.5805L84.4152 69.6728L85.5063 68.5529L70.9763 54.3984L56.4463 68.5529L57.5373 69.6728Z" fill="#070D2B"/>
<path d="M55.5736 75.5224H52.3936V72.3359H55.5736V75.5224Z" fill="#1C5AB5"/>
<path d="M51.056 75.5224H47.876V72.3359H51.056V75.5224Z" fill="#1C5AB5"/>
<path d="M46.5375 75.5224H43.3574V72.3359H46.5375V75.5224Z" fill="#1C5AB5"/>
<path d="M42.0189 75.5224H38.8389V72.3359H42.0189V75.5224Z" fill="#1C5AB5"/>
<path d="M53.9088 89.1791H41.0186V79.7578H53.9088V89.1791Z" fill="#1C5AB5"/>
<path d="M80.6514 74.5077H75.8252V69.6719H80.6514V74.5077Z" fill="#D7DAF4"/>
<path d="M74.1927 74.5077H69.3633V69.6719H74.1927V74.5077Z" fill="#D7DAF4"/>
<path d="M67.7298 74.5077H62.9004V69.6719H67.7298V74.5077Z" fill="#D7DAF4"/>
<path d="M76.4123 89.1051H67.1064V76.6289H76.4123V89.1051Z" fill="#A7ABC6"/>
<path d="M74.4168 64.6478C74.4168 65.0007 74.3494 65.3409 74.2146 65.665C74.0799 65.9923 73.8873 66.2811 73.6402 66.5282C73.3899 66.7785 73.1011 66.971 72.777 67.1058C72.4497 67.2405 72.1128 67.3079 71.7598 67.3079C71.4068 67.3079 71.0667 67.2405 70.7426 67.1058C70.4153 66.971 70.1265 66.7785 69.8794 66.5282C69.6291 66.2811 69.4365 65.9923 69.3018 65.665C69.167 65.3409 69.0996 65.0007 69.0996 64.6478C69.0996 64.2948 69.167 63.9546 69.3018 63.6273C69.4365 63.3032 69.6291 63.0144 69.8794 62.7641C70.1265 62.5138 70.4153 62.3213 70.7426 62.1865C71.0667 62.0518 71.4068 61.9844 71.7598 61.9844C72.1128 61.9844 72.4497 62.0518 72.777 62.1865C73.1011 62.3213 73.3899 62.5138 73.6402 62.7641C73.8873 63.0144 74.0799 63.3032 74.2146 63.6273C74.3494 63.9546 74.4168 64.2948 74.4168 64.6478Z" fill="#D7DAF4"/>
<path d="M11.214 46.2734C9.61596 47.6661 -5.16432 82.8677 2.88365 87.0713C13.0784 92.3949 32.7844 87.9056 32.7844 87.9056L33.5513 76.7451L14.1694 76.0776C14.1694 76.0776 21.4119 62.4463 19.6631 54.3984C18.1581 47.4768 11.214 46.2734 11.214 46.2734Z" fill="#FCC283"/>
<path d="M40.0453 82.3774C40.0453 82.3774 44.2875 84.014 42.6541 84.7809C41.117 85.5029 40.0741 85.2269 39.9554 85.1948C40.1479 85.2847 43.0841 86.6485 42.2947 87.3416C41.4764 88.0572 32.8477 86.9726 32.8477 86.9726L33.4991 77.4614C33.4991 77.4614 36.1978 74.076 36.9711 75.0515V78.023C36.9711 78.023 43.0103 77.4069 43.1611 78.8958C43.3087 80.282 40.0485 79.9226 39.6313 79.8745C40.0677 79.9676 43.5719 80.7537 43.5719 81.8095C43.5719 82.939 40.0453 82.3774 40.0453 82.3774Z" fill="#FEC3BD"/>
<path d="M135.982 6.53227C139.544 5.29685 143.639 5.714 146.88 7.63934C150.121 9.56468 152.447 12.9629 153.073 16.6852C153.574 19.6791 153.022 22.734 152.701 25.7535C152.377 28.7731 152.316 31.9724 153.692 34.6775C154.569 36.3974 155.958 37.7837 157.283 39.1796C158.612 40.5786 159.924 42.0643 160.579 43.8774C161.237 45.6872 161.105 47.9109 159.777 49.3068C158.56 50.5807 156.475 51.1006 155.891 52.7628C155.406 54.149 156.231 55.6187 157.027 56.8541C158.259 58.773 159.494 60.692 160.73 62.6109C156.449 63.2045 152.008 63.7853 147.875 62.5275C143.742 61.2696 139.997 57.6243 140.087 53.2987C140.112 51.9317 140.488 50.4428 139.769 49.2779C138.832 47.7601 136.66 47.7377 134.895 47.9944C132.809 48.3024 130.701 48.7453 128.612 48.4565C126.523 48.1644 124.405 46.9451 123.75 44.9395C123.166 43.1618 123.83 41.1562 123.246 39.3753C122.425 36.882 119.402 35.5375 118.815 32.98C118.035 29.6042 121.892 26.8478 122.252 23.4014C122.479 21.2483 121.295 19.1978 121.087 17.0414C120.721 13.2453 123.509 9.70908 126.911 7.99232C130.316 6.27877 134.234 5.99639 138.036 5.74609" fill="#0E1738"/>
<path d="M131.94 148.42L131.86 149.586H115.809L118.918 100.59L135.155 102.274L135.142 102.449L131.94 148.42Z" fill="#0E1738"/>
<path d="M130.874 102.65L131.939 127.839L135.142 101.648L130.874 102.65Z" fill="#06112D"/>
<path d="M133.378 149.586L132.28 105.797L151.611 98.1172L152.32 149.586H133.378Z" fill="#0E1738"/>
<path d="M128.574 43.5V61.7201C128.574 61.7201 116.133 71.2409 109.221 73.1149C108.252 73.3812 107.392 73.4935 106.689 73.4101C99.6549 72.579 91.1191 54.8916 91.1191 54.8916L97.7488 47.7229L109.221 59.307C113.633 56.0789 124.845 46.2661 128.574 43.5Z" fill="#37C092"/>
<path d="M128.574 55.7798V61.7227C128.574 61.7227 116.133 71.2435 109.221 73.1175C115.764 68.0699 122.384 57.4581 122.384 57.4581L124.575 49.3203C124.575 49.3203 126.481 52.388 128.574 55.7798Z" fill="#27AA7B"/>
<path d="M117.465 105.55C117.465 109.584 153.527 110.703 153.527 106.67C153.527 106.67 153.649 104.045 153.838 100.076C154.319 90.1569 155.247 71.8405 155.86 65.0537C156.559 57.3556 156.867 49.8821 155.696 48.0562C153.687 44.9404 146.961 43.0856 143.271 42.7455C139.857 42.431 135.563 42.078 132.149 42.4021C128.789 42.7166 127.528 44.1349 125.802 46.1148C123.661 48.5728 123.767 59.7879 123.767 59.7879C118.171 65.7083 119.987 72.0331 121.588 75.181C122.131 76.2656 121.928 77.7192 121.928 77.7192L117.465 105.55Z" fill="#37C092"/>
<path d="M136.91 86.7284L137.812 96.6247L153.837 100.077C154.319 90.1588 155.246 71.8424 155.859 65.0556C154.399 58.1789 155.297 50.5771 153.523 49.6914C153.523 49.6914 149.011 51.3119 148.173 58.4741C146.88 69.5641 153.526 79.0014 153.526 79.0014L136.91 86.7284Z" fill="#27AA7B"/>
<path d="M155.236 47.3945C160.172 49.6504 167.921 76.1109 164.802 85.7601C161.211 96.866 137.812 96.6222 137.812 96.6222L136.91 86.7259L154.874 80.0226C154.874 80.0226 148.668 66.8821 149.402 56.7998C150.003 48.5947 155.236 47.3945 155.236 47.3945Z" fill="#37C092"/>
<path d="M127.429 93.5222C126.142 93.6249 124.236 93.949 124.326 95.0015C124.461 96.5899 128.741 95.4058 128.741 95.4058C128.741 95.4058 125.471 97.113 127.461 98.1173C129.454 99.1217 137.768 96.1246 137.768 96.1246L136.911 87.6403C136.911 87.6403 131.533 85.6283 131.649 87.3355C131.7 88.0992 133.086 89.2159 133.086 89.2159C133.086 89.2159 125.812 88.619 125.773 90.2748C125.757 91.1637 127.23 91.3787 128.6 91.3915C126.373 91.5648 123.331 91.9434 123.485 92.6719C123.646 93.458 125.982 93.5479 127.429 93.5222ZM127.439 93.5222C128.087 93.4741 128.574 93.4837 128.574 93.4837C128.574 93.4837 128.096 93.5158 127.439 93.5222Z" fill="#FEC3BD"/>
<path d="M127.438 93.5237C128.096 93.5173 128.574 93.4852 128.574 93.4852C128.574 93.4852 128.087 93.4755 127.438 93.5237Z" fill="#FEC3BD"/>
<path d="M132.373 49.356C139.763 51.4835 143.27 42.7457 143.27 42.7457L142.584 31.7777L138.419 30.9883L134.825 33.4655L131.507 35.7503L131.933 40.1561L132.148 42.4023C132.148 42.4023 129.716 48.5891 132.373 49.356Z" fill="#FEC3BD"/>
<path d="M131.506 35.7489L131.933 40.1547C131.933 40.1547 139.859 37.1704 141.02 33.7626C141.8 31.4618 137.622 32.5271 134.824 33.4641L131.506 35.7489Z" fill="#E98C6F"/>
<path d="M128.516 38.3212C136.911 40.7119 142.581 31.7783 142.581 31.7783C142.581 31.7783 147.407 31.0338 147.59 27.3821C147.776 23.7304 144.872 23.2972 143.88 24.3465C143.88 24.3465 142.581 8.74487 132.691 8.99517C128.802 9.09143 126.18 13.3304 124.928 18.548C123 26.6056 123.59 36.919 128.516 38.3212Z" fill="#FEC3BD"/>
<path d="M124.527 18.7714C124.662 18.704 124.793 18.627 124.928 18.5436C127.704 16.8685 130.463 12.6424 130.463 12.6424C132.44 18.8356 138.996 19.9779 138.996 19.9779C137.635 18.4633 137.757 13.3837 137.757 13.3837C140.235 15.0555 143.572 26.5722 143.572 26.5722L143.88 24.342C144.871 23.2927 147.776 23.7259 147.589 27.3776C147.406 31.0294 142.58 31.7738 142.58 31.7738L142.766 34.7356C151.052 32.8777 152.48 25.4619 151.552 19.2046C150.625 12.9537 144.75 3.48101 132.44 6.38827C120.134 9.29873 124.527 18.7714 124.527 18.7714Z" fill="#0E1738"/>
<path d="M133.435 22.5745C133.534 22.5809 133.631 22.613 133.721 22.674C133.81 22.7381 133.887 22.8216 133.955 22.9307C134.019 23.0398 134.067 23.1649 134.099 23.3061C134.131 23.4473 134.144 23.5917 134.138 23.7425C134.131 23.8933 134.106 24.0377 134.061 24.1725C134.016 24.3105 133.955 24.4292 133.881 24.5319C133.804 24.6378 133.721 24.7148 133.624 24.7662C133.528 24.8207 133.432 24.8464 133.332 24.84C133.233 24.8368 133.137 24.8015 133.047 24.7405C132.957 24.6795 132.88 24.5929 132.812 24.4838C132.748 24.3747 132.7 24.2495 132.668 24.1083C132.636 23.9704 132.623 23.8227 132.63 23.6751C132.636 23.5243 132.662 23.3799 132.707 23.2419C132.751 23.1072 132.812 22.9852 132.886 22.8825C132.963 22.7799 133.047 22.7028 133.143 22.6483C133.239 22.5969 133.335 22.5713 133.435 22.5745Z" fill="#0E1738"/>
<path d="M134.529 22.0155C134.488 22.0155 134.446 22.0026 134.411 21.9738C133.22 21.0239 132.53 21.6015 132.501 21.6272C132.421 21.6978 132.299 21.6914 132.232 21.6111C132.161 21.5309 132.168 21.4122 132.245 21.3416C132.283 21.3063 133.194 20.5105 134.651 21.6721C134.735 21.7395 134.748 21.8614 134.68 21.9417C134.642 21.9898 134.587 22.0155 134.529 22.0155Z" fill="#0E1738"/>
<path d="M127.056 22.5745C127.156 22.5809 127.252 22.613 127.342 22.674C127.432 22.7382 127.509 22.8216 127.576 22.9307C127.64 23.0398 127.688 23.165 127.72 23.3061C127.752 23.4473 127.765 23.5917 127.759 23.7426C127.752 23.8934 127.727 24.0346 127.682 24.1725C127.637 24.3105 127.576 24.4293 127.502 24.5319C127.425 24.6346 127.342 24.7148 127.245 24.7662C127.149 24.8207 127.053 24.8432 126.953 24.84C126.854 24.8368 126.758 24.8015 126.668 24.7405C126.578 24.6796 126.501 24.5929 126.434 24.4838C126.369 24.3747 126.321 24.2496 126.289 24.1084C126.257 23.9672 126.244 23.8228 126.251 23.672C126.257 23.5244 126.283 23.38 126.328 23.242C126.373 23.104 126.434 22.9853 126.507 22.8826C126.584 22.7799 126.668 22.7029 126.764 22.6483C126.86 22.5938 126.957 22.5713 127.056 22.5745Z" fill="#0E1738"/>
<path d="M128.15 22.0155C128.109 22.0155 128.067 22.0026 128.032 21.9738C126.841 21.0239 126.151 21.6015 126.122 21.6272C126.042 21.6978 125.92 21.6914 125.853 21.6111C125.782 21.5309 125.789 21.4122 125.866 21.3416C125.904 21.3063 126.816 20.5105 128.272 21.6721C128.356 21.7395 128.369 21.8614 128.301 21.9417C128.263 21.9898 128.208 22.0155 128.15 22.0155Z" fill="#0E1738"/>
<path d="M128.897 29.6263C128.852 29.6263 128.804 29.6102 128.769 29.5781C128.47 29.3118 128.3 28.9588 128.288 28.5769C128.278 28.2015 128.422 27.8453 128.695 27.5726C128.801 27.4667 128.917 27.3768 129.032 27.287C129.099 27.2356 129.167 27.1843 129.231 27.1329C129.642 26.78 129.921 26.2826 130.036 25.6922C130.142 25.1499 130.107 24.5787 130.072 24.0299C130.065 23.9241 130.146 23.831 130.251 23.8246C130.361 23.8182 130.45 23.8984 130.457 24.0043C130.492 24.5787 130.527 25.1755 130.412 25.766C130.28 26.443 129.959 27.0142 129.478 27.425C129.411 27.4827 129.337 27.5373 129.266 27.595C129.157 27.6785 129.054 27.7555 128.968 27.8421C128.769 28.0411 128.666 28.2978 128.673 28.5641C128.682 28.8401 128.804 29.0968 129.022 29.2925C129.103 29.3631 129.109 29.4851 129.038 29.5621C129.003 29.607 128.949 29.6263 128.897 29.6263Z" fill="#F18B89"/>
<path d="M130.779 32.7615C130.747 32.7615 130.711 32.7615 130.676 32.7615C130.57 32.755 130.49 32.6684 130.493 32.5625C130.496 32.4534 130.586 32.37 130.692 32.3764C131.565 32.4085 132.441 31.9592 132.926 31.234C132.983 31.1442 133.105 31.1217 133.192 31.1827C133.282 31.2404 133.304 31.3592 133.247 31.449C132.707 32.2545 131.748 32.7615 130.779 32.7615Z" fill="#F18B89"/>
<path d="M75.7195 14.8998C75.7195 15.333 75.6746 15.7662 75.5911 16.193C75.5077 16.6198 75.3793 17.0337 75.2157 17.4348C75.0488 17.8359 74.8435 18.2178 74.6028 18.5804C74.3621 18.943 74.0862 19.2767 73.7813 19.5848C73.4732 19.8928 73.1395 20.1688 72.7769 20.4095C72.4143 20.6501 72.0324 20.8555 71.6313 21.0224C71.2302 21.1892 70.8163 21.3144 70.3895 21.3978C69.9659 21.4844 69.5327 21.5262 69.0995 21.5262C68.6663 21.5262 68.2331 21.4844 67.8095 21.3978C67.3827 21.3144 66.9688 21.1892 66.5677 21.0224C66.1665 20.8555 65.7847 20.6501 65.4221 20.4095C65.0595 20.1688 64.7257 19.8928 64.4209 19.5848C64.1128 19.2767 63.8369 18.943 63.5962 18.5804C63.3555 18.2178 63.1502 17.8359 62.9833 17.4348C62.8196 17.0337 62.6913 16.6198 62.6078 16.193C62.5244 15.7662 62.4795 15.333 62.4795 14.8998C62.4795 14.4634 62.5244 14.0334 62.6078 13.6066C62.6913 13.1798 62.8196 12.7659 62.9833 12.3648C63.1502 11.9605 63.3555 11.5786 63.5962 11.216C63.8369 10.8566 64.1128 10.5197 64.4209 10.2148C64.7257 9.90676 65.0595 9.6308 65.4221 9.39013C65.7847 9.14626 66.1665 8.9441 66.5677 8.77723C66.9688 8.61037 67.3827 8.48522 67.8095 8.39858C68.2331 8.31515 68.6663 8.27344 69.0995 8.27344C69.5327 8.27344 69.9659 8.31515 70.3895 8.39858C70.8163 8.48522 71.2302 8.61037 71.6313 8.77723C72.0324 8.9441 72.4143 9.14626 72.7769 9.39013C73.1395 9.6308 73.4732 9.90676 73.7813 10.2148C74.0862 10.5197 74.3621 10.8566 74.6028 11.216C74.8435 11.5786 75.0488 11.9605 75.2157 12.3648C75.3793 12.7659 75.5077 13.1798 75.5911 13.6066C75.6746 14.0334 75.7195 14.4634 75.7195 14.8998Z" fill="#F9DAE0"/>
<path d="M66.6255 17.8555L64.8799 15.1697L66.1667 14.3321L67.0748 15.728L72.2572 12.3555L73.0947 13.6454L66.6255 17.8555Z" fill="white"/>
<path d="M102.107 34.3295C102.107 34.3295 103.121 35.8955 106.124 35.9372C106.124 35.9372 105.989 35.7382 105.842 35.382C105.2 33.8482 105.54 32.0865 106.612 30.8158C107.767 29.4424 109.442 26.5576 106.759 23.3904C103.037 18.9782 92.3642 20.0211 89.059 22.001C85.7571 23.9809 86.1806 37.041 102.107 34.3295Z" fill="#FCC283"/>
<path d="M94.7647 26.9976C94.7647 27.5912 94.2897 28.0757 93.6961 28.0757C93.1024 28.0757 92.6211 27.5912 92.6211 26.9976C92.6211 26.4071 93.1024 25.9258 93.6961 25.9258C94.2897 25.9258 94.7647 26.4071 94.7647 26.9976Z" fill="white"/>
<path d="M98.8782 26.9976C98.8782 27.5912 98.4001 28.0757 97.8064 28.0757C97.2128 28.0757 96.7314 27.5912 96.7314 26.9976C96.7314 26.4071 97.2128 25.9258 97.8064 25.9258C98.4001 25.9258 98.8782 26.4071 98.8782 26.9976Z" fill="white"/>
<path d="M102.988 26.9976C102.988 27.5912 102.513 28.0757 101.92 28.0757C101.326 28.0757 100.845 27.5912 100.845 26.9976C100.845 26.4071 101.326 25.9258 101.92 25.9258C102.513 25.9258 102.988 26.4071 102.988 26.9976Z" fill="white"/>
</svg>
