<svg width="162" height="155" viewBox="0 0 162 155" fill="none" xmlns="http://www.w3.org/2000/svg">
<path d="M84.4854 16.243C85.5386 14.3599 86.0479 12.131 85.7681 9.76368C85.1708 4.70847 80.9204 0.706428 75.8369 0.395193C69.2003 -0.00721225 63.771 5.66104 64.5789 12.3699C65.1543 17.139 68.9897 20.9964 73.7557 21.6221C76.1072 21.9301 78.3205 21.4554 80.2036 20.4431C80.5588 20.2545 80.9675 20.2011 81.3479 20.33L85.5135 21.7258C85.6518 21.773 85.7807 21.6409 85.7367 21.5057L84.3597 17.4094C84.2276 17.0195 84.2874 16.5983 84.4886 16.243H84.4854Z" fill="white"/>
<path d="M85.5662 22.1054C85.5097 22.1054 85.4499 22.096 85.3902 22.0771L81.2247 20.6781C80.9543 20.5901 80.6525 20.6184 80.3758 20.7693C78.3292 21.8696 76.0217 22.2909 73.7016 21.986C68.791 21.3446 64.7952 17.3174 64.2073 12.41C63.8081 9.11844 64.8738 5.86147 67.1279 3.46905C69.382 1.07977 72.5635 -0.177743 75.8551 0.0203154C81.1021 0.337838 85.5191 4.5065 86.1353 9.71576C86.4119 12.0579 85.9498 14.378 84.8055 16.4183C84.6483 16.7013 84.6137 17.0062 84.7049 17.286L86.0818 21.3824C86.1479 21.5804 86.0976 21.7942 85.9498 21.9419C85.846 22.0488 85.7077 22.1023 85.5662 22.1023V22.1054ZM75.1792 0.74653C72.334 0.74653 69.6304 1.90344 67.6718 3.98149C65.5686 6.21043 64.5751 9.25048 64.9461 12.322C65.4963 16.8962 69.2217 20.6499 73.8022 21.2503C75.9588 21.5364 78.1155 21.1403 80.0269 20.1123C80.489 19.867 80.9983 19.8167 81.4636 19.9739L85.255 21.244L84.0038 17.5249C83.8466 17.0534 83.9032 16.5158 84.161 16.0568C85.2299 14.1516 85.6574 11.9887 85.3996 9.80378C84.8275 4.94663 80.7059 1.06091 75.8142 0.765393C75.6004 0.752818 75.3898 0.74653 75.1792 0.74653Z" fill="black"/>
<path d="M92.8847 96.2865L101.794 98.5123C101.794 98.5123 103.791 103.923 104.36 105.029C104.925 106.136 105.152 108.664 105.076 110.742C105.001 112.817 103.998 114.08 105.092 114.957C106.186 115.831 111.043 119.051 117.689 121.066C124.332 123.081 134.443 124.345 138.256 124.687C142.069 125.03 147.599 124.662 146.974 122.459C146.345 120.252 143.802 110.946 143.802 110.946C143.802 110.946 149.853 113.58 154.745 112.766C159.637 111.949 161.391 108.969 161.268 103.835C161.146 98.7009 158.728 91.4545 157.634 88.3233C156.54 85.1889 150.193 63.9589 150.193 63.9589C150.193 63.9589 148.105 58.0266 143.827 55.2663C139.551 52.503 131.786 50.12 131.786 50.12C131.786 50.12 126.979 52.3709 121.597 52.3049C116.215 52.242 104.614 51.9874 103.564 49.1328C103.564 49.1328 97.4149 49.7207 94.6578 51.1323C91.9007 52.5407 90.1779 54.4741 88.8701 57.9228C87.5623 61.3716 87.0121 63.6697 86.1916 65.4459C85.371 67.2222 83.3496 71.0167 83.3496 71.0167L73.0788 70.388L67.7721 62.0098C67.7721 62.0098 59.0229 64.704 57.998 66.1942L59.8717 71.1771C59.8717 71.1771 66.7692 92.712 76.1535 94.8812C85.5345 97.0504 92.8847 96.2865 92.8847 96.2865ZM141.173 95.991C141.173 95.991 140.46 93.9035 140.482 90.4956C140.507 87.0909 140.67 86.2107 140.67 86.2107L144.858 96.8524L141.17 95.991H141.173Z" fill="#97A2DD"/>
<path d="M3.13268 18.7266H53.6691C54.0275 18.7266 54.3765 18.7957 54.7097 18.9341C55.043 19.0724 55.3385 19.2704 55.5931 19.5251C55.8478 19.7797 56.0459 20.0752 56.1842 20.4085C56.3225 20.7417 56.3917 21.0875 56.3917 21.4491V88.9525C56.3917 89.314 56.3225 89.6599 56.1842 89.9931C56.0459 90.3263 55.8478 90.6219 55.5931 90.8765C55.3385 91.1311 55.043 91.3292 54.7097 91.4675C54.3765 91.6059 54.0275 91.675 53.6691 91.675H3.13268C2.77114 91.675 2.42218 91.6059 2.08894 91.4675C1.7557 91.3292 1.46018 91.1311 1.20554 90.8765C0.950889 90.6219 0.75283 90.3263 0.614503 89.9931C0.479319 89.6599 0.410156 89.314 0.410156 88.9525V21.4491C0.410156 21.0875 0.479319 20.7417 0.614503 20.4085C0.75283 20.0752 0.950889 19.7797 1.20554 19.5251C1.46018 19.2704 1.7557 19.0724 2.08894 18.9341C2.42218 18.7957 2.77114 18.7266 3.13268 18.7266Z" fill="#FFE7C5"/>
<mask id="mask0_500_2254" style="mask-type:luminance" maskUnits="userSpaceOnUse" x="0" y="18" width="58" height="75">
<path d="M0.00195312 18.3438H57.5428V92.3863H0.00195312V18.3438Z" fill="white"/>
</mask>
<g mask="url(#mask0_500_2254)">
<path d="M53.6671 92.0459H3.13375C1.42667 92.0459 0.0371094 90.6563 0.0371094 88.9524V21.4521C0.0371094 19.745 1.42667 18.3555 3.13375 18.3555H53.6671C55.3741 18.3555 56.7637 19.745 56.7637 21.4521V88.9524C56.7637 90.6595 55.3741 92.049 53.6671 92.049V92.0459ZM3.13375 19.1005C1.83536 19.1005 0.782188 20.1537 0.782188 21.449V88.9524C0.782188 90.2476 1.83536 91.3008 3.13375 91.3008H53.6671C54.9655 91.3008 56.0186 90.2476 56.0186 88.9524V21.4521C56.0186 20.1537 54.9623 19.1005 53.6671 19.1005H3.13375Z" fill="black"/>
</g>
<path d="M11.1056 58.9492H17.2989C17.4121 58.9492 17.5127 58.9901 17.5944 59.0718C17.6762 59.1536 17.717 59.2542 17.717 59.3673V65.5575C17.717 65.6738 17.6762 65.7744 17.5944 65.8561C17.5127 65.9379 17.4121 65.9787 17.2989 65.9787H11.1056C10.9893 65.9787 10.8918 65.9379 10.8101 65.8561C10.7284 65.7744 10.6875 65.6738 10.6875 65.5575V59.3673C10.6875 59.2542 10.7284 59.1536 10.8101 59.0718C10.8918 58.9901 10.9893 58.9492 11.1056 58.9492Z" fill="#F5F5FF"/>
<path d="M17.2958 66.3496H11.1057C10.6687 66.3496 10.3135 65.9943 10.3135 65.5573V59.3672C10.3135 58.9334 10.6687 58.5781 11.1057 58.5781H17.2958C17.7328 58.5781 18.0881 58.9334 18.0881 59.3672V65.5573C18.0881 65.9943 17.7328 66.3496 17.2958 66.3496ZM11.1057 59.3201L11.0554 65.5573L17.2958 65.6045C17.321 65.6045 17.343 65.5856 17.343 65.5573V59.3672L11.1057 59.3201Z" fill="black"/>
<path d="M11.1056 72.6445H17.2989C17.4121 72.6445 17.5127 72.6854 17.5944 72.7671C17.6762 72.8489 17.717 72.9495 17.717 73.0627V79.2528C17.717 79.3691 17.6762 79.4697 17.5944 79.5514C17.5127 79.6332 17.4121 79.674 17.2989 79.674H11.1056C10.9893 79.674 10.8918 79.6332 10.8101 79.5514C10.7284 79.4697 10.6875 79.3691 10.6875 79.2528V73.0627C10.6875 72.9495 10.7284 72.8489 10.8101 72.7671C10.8918 72.6854 10.9893 72.6445 11.1056 72.6445Z" fill="#F5F5FF"/>
<path d="M17.2958 80.0449H11.1057C10.6687 80.0449 10.3135 79.6896 10.3135 79.2526V73.0625C10.3135 72.6287 10.6687 72.2734 11.1057 72.2734H17.2958C17.7328 72.2734 18.0881 72.6287 18.0881 73.0625V79.2526C18.0881 79.6896 17.7328 80.0449 17.2958 80.0449ZM11.1057 73.0154L11.0554 79.2526L17.2958 79.2998C17.321 79.2998 17.343 79.2778 17.343 79.2526V73.0625L11.1057 73.0154Z" fill="black"/>
<path d="M38.5197 60.5505H22.2977C22.0934 60.5505 21.9268 60.3839 21.9268 60.1796C21.9268 59.9752 22.0934 59.8086 22.2977 59.8086H38.5197C38.7272 59.8086 38.8907 59.9752 38.8907 60.1796C38.8907 60.3839 38.724 60.5505 38.5197 60.5505Z" fill="black"/>
<path d="M34.2033 64.2295H22.2977C22.0902 64.2295 21.9268 64.0628 21.9268 63.8585C21.9268 63.6541 22.0934 63.4844 22.2977 63.4844H34.2033C34.4108 63.4844 34.5774 63.6541 34.5774 63.8585C34.5774 64.0628 34.4108 64.2295 34.2033 64.2295Z" fill="black"/>
<path d="M38.5197 74.0693H22.2977C22.0934 74.0693 21.9268 73.9027 21.9268 73.6983C21.9268 73.4908 22.0934 73.3242 22.2977 73.3242H38.5197C38.7272 73.3242 38.8907 73.4908 38.8907 73.6983C38.8907 73.9027 38.724 74.0693 38.5197 74.0693Z" fill="black"/>
<path d="M34.2033 77.7419H22.2977C22.0902 77.7419 21.9268 77.5753 21.9268 77.371C21.9268 77.1666 22.0934 77 22.2977 77H34.2033C34.4108 77 34.5774 77.1666 34.5774 77.371C34.5774 77.5753 34.4108 77.7419 34.2033 77.7419Z" fill="black"/>
<path d="M11.1056 30.8516H17.2989C17.4121 30.8516 17.5127 30.8924 17.5944 30.9742C17.6762 31.0559 17.717 31.1565 17.717 31.2728V37.4629C17.717 37.5761 17.6762 37.6767 17.5944 37.7585C17.5127 37.8402 17.4121 37.8811 17.2989 37.8811H11.1056C10.9893 37.8811 10.8918 37.8402 10.8101 37.7585C10.7284 37.6767 10.6875 37.5761 10.6875 37.4629V31.2728C10.6875 31.1565 10.7284 31.0559 10.8101 30.9742C10.8918 30.8924 10.9893 30.8516 11.1056 30.8516Z" fill="#F5F5FF"/>
<path d="M17.2958 38.248H11.1057C10.6687 38.248 10.3135 37.8928 10.3135 37.4589V31.2688C10.3135 30.8318 10.6687 30.4766 11.1057 30.4766H17.2958C17.7328 30.4766 18.0881 30.8318 18.0881 31.2688V37.4589C18.0881 37.8928 17.7328 38.248 17.2958 38.248ZM11.1057 31.2216L11.0554 37.4589L17.2958 37.5061C17.321 37.5061 17.343 37.4841 17.343 37.4589V31.2688L11.1057 31.2216Z" fill="black"/>
<path d="M11.1056 44.5391H17.2989C17.4121 44.5391 17.5127 44.5799 17.5944 44.6617C17.6762 44.7466 17.717 44.844 17.717 44.9603V51.1504C17.717 51.2636 17.6762 51.3642 17.5944 51.446C17.5127 51.5277 17.4121 51.5686 17.2989 51.5686H11.1056C10.9893 51.5686 10.8918 51.5277 10.8101 51.446C10.7284 51.3642 10.6875 51.2636 10.6875 51.1504V44.9603C10.6875 44.844 10.7284 44.7466 10.8101 44.6617C10.8918 44.5799 10.9893 44.5391 11.1056 44.5391Z" fill="#F5F5FF"/>
<path d="M17.2958 51.9433H11.1057C10.6687 51.9433 10.3135 51.5881 10.3135 51.1511V44.961C10.3135 44.5271 10.6687 44.1719 11.1057 44.1719H17.2958C17.7328 44.1719 18.0881 44.5271 18.0881 44.961V51.1511C18.0881 51.5881 17.7328 51.9433 17.2958 51.9433ZM11.1057 44.9138L11.0554 51.1511L17.2958 51.1982C17.321 51.1982 17.343 51.1794 17.343 51.1511V44.961L11.1057 44.9138Z" fill="black"/>
<path d="M40.6763 32.449H22.2977C22.0934 32.449 21.9268 32.2823 21.9268 32.078C21.9268 31.8737 22.0934 31.707 22.2977 31.707H40.6763C40.8807 31.707 41.0473 31.8737 41.0473 32.078C41.0473 32.2823 40.8807 32.449 40.6763 32.449Z" fill="black"/>
<path d="M36.3631 36.1318H22.2977C22.0902 36.1318 21.9268 35.9652 21.9268 35.7577C21.9268 35.5533 22.0934 35.3867 22.2977 35.3867H36.3631C36.5674 35.3867 36.734 35.5533 36.734 35.7577C36.734 35.9652 36.5674 36.1318 36.3631 36.1318Z" fill="black"/>
<path d="M40.6763 45.9646H22.2977C22.0934 45.9646 21.9268 45.798 21.9268 45.5936C21.9268 45.3893 22.0934 45.2227 22.2977 45.2227H40.6763C40.8807 45.2227 41.0473 45.3893 41.0473 45.5936C41.0473 45.798 40.8807 45.9646 40.6763 45.9646Z" fill="black"/>
<path d="M36.3631 49.6396H22.2977C22.0902 49.6396 21.9268 49.473 21.9268 49.2686C21.9268 49.0643 22.0934 48.8945 22.2977 48.8945H36.3631C36.5674 48.8945 36.734 49.0643 36.734 49.2686C36.734 49.473 36.5674 49.6396 36.3631 49.6396Z" fill="black"/>
<path d="M13.432 64.2866C13.3346 64.2866 13.2371 64.2457 13.1679 64.1766L11.813 62.8185C11.6652 62.6738 11.6652 62.4381 11.813 62.2934C11.9576 62.1457 12.1902 62.1457 12.338 62.2934L13.432 63.3875L16.0665 60.753C16.2111 60.6084 16.4469 60.6084 16.5915 60.753C16.7361 60.8976 16.7361 61.1334 16.5915 61.278L13.6961 64.1734C13.6238 64.2457 13.5326 64.2835 13.432 64.2835V64.2866Z" fill="black"/>
<path d="M13.432 49.8772C13.3377 49.8772 13.2402 49.8426 13.1679 49.7703L11.813 48.4122C11.6652 48.2676 11.6652 48.0318 11.813 47.8872C11.9576 47.7426 12.1902 47.7426 12.338 47.8872L13.432 48.9812L16.0665 46.3467C16.2111 46.2021 16.4469 46.2021 16.5915 46.3467C16.7361 46.4945 16.7361 46.7271 16.5915 46.8749L13.6961 49.7703C13.6238 49.8395 13.5295 49.8772 13.432 49.8772Z" fill="black"/>
<path d="M13.432 36.1819C13.3377 36.1819 13.2402 36.1442 13.1679 36.0719L11.813 34.7169C11.6652 34.5691 11.6652 34.3365 11.813 34.1919C11.9576 34.0441 12.1902 34.0441 12.338 34.1919L13.432 35.2828L16.0665 32.6514C16.2111 32.5068 16.4469 32.5068 16.5915 32.6514C16.7361 32.7992 16.7361 33.0318 16.5915 33.1796L13.6961 36.075C13.6238 36.1442 13.5295 36.1819 13.432 36.1819Z" fill="black"/>
<path d="M67.7723 62.0124C67.7723 62.0124 66.2256 58.8466 65.9049 58.243C65.5811 57.6362 64.8801 55.643 64.7292 54.6527C64.5782 53.6593 64.792 48.8525 64.7292 47.3906C64.6694 45.9256 62.9655 39.7983 62.5882 38.8489C62.211 37.8964 61.6577 37.2896 61.1641 37.9026C60.6705 38.5125 60.79 39.5657 60.7208 39.5217C60.6548 39.4745 52.6821 29.8828 51.9654 29.3452C51.2454 28.8077 50.164 29.3767 50.6481 30.499C51.1322 31.6245 56.2095 38.6634 56.615 39.5217C57.0206 40.3768 57.643 41.1345 57.1055 41.3199C56.571 41.5054 53.0783 37.4939 51.236 36.9061C49.3969 36.3213 46.4637 35.1047 45.9104 35.5982C45.3602 36.095 45.3477 37.0035 46.1871 37.7989C47.0296 38.5974 49.1705 39.1256 50.2551 39.7983C51.3366 40.468 54.0214 43.1528 54.0214 43.1528C54.0214 43.1528 47.4257 39.55 45.3225 39.1727C43.2162 38.7986 42.5874 39.5437 43.0653 40.1882C43.5431 40.8358 44.7095 41.8324 45.486 41.9959C45.486 41.9959 44.4674 42.0241 44.3039 42.9924C44.1405 43.9639 46.2437 44.951 46.316 44.9856C46.3851 45.017 49.5289 46.5009 50.6481 47.2397C51.7673 47.9753 51.9968 48.1325 51.9936 48.7644C51.9936 49.3963 51.5787 54.1434 52.0565 55.467C52.5344 56.7937 53.116 57.4759 54.056 58.5227C54.9928 59.5665 55.9831 60.868 55.9831 60.868L57.8725 65.8541C57.8725 65.8541 59.5702 65.1907 63.415 63.339C66.1784 62.0124 67.7723 62.0124 67.7723 62.0124Z" fill="#FFCDB4"/>
<path d="M60.0897 54.6539C59.5364 53.4813 59.3226 52.1672 59.4798 50.8814C59.6338 49.5924 60.1934 48.5581 60.7436 47.4578C61.2497 46.4455 61.7339 45.3703 61.7213 44.2134C61.7119 43.5972 61.5547 42.9967 61.4038 42.4026C61.234 41.7204 61.0988 41.0319 61.0108 40.334C60.9479 39.8152 60.8222 39.1708 61.0108 38.6646C61.1271 38.3565 61.3881 38.0579 61.7433 38.2245C62.042 38.3659 62.1646 38.7306 62.2526 39.0199C62.6613 40.3654 62.9568 41.7518 63.3058 43.1131C63.6516 44.468 64.0792 45.8293 64.2709 47.2189C64.4596 48.5644 64.4344 49.9477 64.3464 51.3026C64.2583 52.6513 64.186 53.9811 64.4816 55.3141C64.6985 56.295 64.9563 57.3764 65.475 58.2504C65.7202 58.6591 66.3647 58.2881 66.1195 57.8732C65.6133 57.0306 65.3807 55.9649 65.1763 55.0092C64.884 53.6353 65.0412 52.2458 65.1197 50.8594C65.1983 49.473 65.17 47.9262 64.9028 46.4989C64.6136 44.9648 64.1609 43.4557 63.7742 41.9436C63.5761 41.1765 63.3812 40.4094 63.1832 39.6392C63.0354 39.0607 62.9317 38.4131 62.5387 37.9384C61.737 36.9701 60.4701 37.558 60.2437 38.6678C60.1148 39.2871 60.2154 39.9347 60.2972 40.554C60.3883 41.2457 60.5172 41.9247 60.687 42.6006C60.8693 43.3206 61.0485 44.0405 60.9416 44.7856C60.8473 45.4458 60.5895 46.0745 60.3035 46.6718C59.681 47.9828 58.9642 49.2183 58.763 50.677C58.5555 52.1703 58.8039 53.6699 59.4452 55.0312C59.6495 55.4619 60.294 55.0846 60.0897 54.6539Z" fill="black"/>
<path d="M68.5518 94.0427C65.3546 86.2995 62.8238 78.2954 59.9944 70.414C59.3782 68.7006 58.7463 66.9967 58.0956 65.299C57.6806 64.2176 57.2688 63.1361 56.8538 62.0578C56.7469 61.7748 56.64 61.4919 56.53 61.2121C56.2879 60.5833 55.9326 60.074 55.5019 59.5648C54.8889 58.8417 54.2161 58.1752 53.5937 57.4647C53.3013 57.1252 53.0121 56.7825 52.7763 56.4021C52.5342 56.006 52.4462 55.6004 52.3739 55.1414C52.1852 53.8934 52.1852 52.573 52.311 51.3186C52.421 50.2057 52.5939 49.0865 52.1318 48.0302C51.94 47.5932 51.2987 47.9705 51.4905 48.4043C51.9054 49.3537 51.6445 50.4918 51.5502 51.4821C51.4433 52.6107 51.4653 53.777 51.5973 54.8994C51.6948 55.7168 51.8583 56.4084 52.3361 57.0812C52.8171 57.7508 53.3893 58.3512 53.9489 58.9549C54.4896 59.5365 55.0775 60.1149 55.5082 60.7877C55.7063 61.1021 55.8289 61.4479 55.9609 61.7937C56.3508 62.8123 56.7437 63.834 57.1336 64.8526C59.2022 70.2536 61.0696 75.7207 62.981 81.1814C64.512 85.5639 66.0619 89.9495 67.835 94.2407C68.0142 94.6777 68.7342 94.4891 68.5518 94.0427Z" fill="black"/>
<path d="M52.0753 47.9492C50.909 46.7671 49.5477 46.0535 48.0481 45.3776C47.3188 45.0475 46.5957 44.7111 45.8758 44.359C45.3476 44.0981 44.2787 43.7774 44.439 42.9852C44.5711 42.3375 45.6871 42.4916 46.1304 42.6456C46.5705 42.7997 47.0232 43.0072 47.4602 43.2115C48.4977 43.6925 49.5131 44.2175 50.5254 44.7425C50.9561 44.9689 51.3868 45.1952 51.8175 45.4185C52.0376 45.5316 52.2765 45.6888 52.5155 45.7486C52.9807 45.8649 53.1788 45.1481 52.7135 45.0318C52.6223 45.0066 52.7638 45.0569 52.6978 45.0255C52.6538 45.0066 52.6098 44.9878 52.5689 44.9657C52.4148 44.8872 52.2608 44.8086 52.1068 44.73C51.6478 44.4942 51.1888 44.2521 50.7266 44.0132C49.6012 43.4253 48.4694 42.8405 47.3062 42.3313C46.341 41.9068 44.6937 41.2718 43.9172 42.3627C43.5273 42.9097 43.6688 43.6799 44.0932 44.1641C44.3479 44.4533 44.7031 44.6011 45.0395 44.7708C45.4293 44.9657 45.8223 45.1575 46.2153 45.3461C47.1584 45.7926 48.133 46.1824 49.0636 46.654C49.991 47.1224 50.8178 47.7386 51.5472 48.4774C51.8835 48.8169 52.4086 48.2919 52.0722 47.9492H52.0753Z" fill="black"/>
<path d="M57.024 41.7745C58.5393 41.2997 56.763 38.9985 56.282 38.3603C54.7887 36.3797 53.2074 34.484 51.9562 32.3337C51.6418 31.7929 51.2928 31.2333 51.1168 30.6297C51.0445 30.3782 50.9879 30.1047 51.0445 29.8438C51.1576 29.3125 51.5821 29.5105 51.9059 29.7526C52.6478 30.3153 53.2011 31.095 53.7859 31.8086C54.8202 33.0724 55.8702 34.3237 56.9108 35.5812C58.0268 36.933 59.168 38.2723 60.2118 39.6807C60.4947 40.0611 61.1423 39.6933 60.8531 39.3066C58.8537 36.6029 56.6058 34.0722 54.4681 31.4785C53.8016 30.6674 51.2771 27.225 50.3937 29.4288C49.9536 30.5323 50.7741 31.7866 51.3117 32.7109C51.997 33.8835 52.7736 34.9964 53.5847 36.0842C54.3455 37.1028 55.1754 38.0679 55.9079 39.1054C56.0777 39.3443 57.1309 40.9634 56.8259 41.0577C56.3701 41.1991 56.565 41.9191 57.024 41.7745Z" fill="black"/>
<path d="M46.2249 41.8924C45.3383 41.5498 44.1122 41.0625 43.5589 40.3017C43.298 39.9433 43.4835 39.522 43.933 39.4183C44.5618 39.2736 45.3289 39.5314 45.9136 39.7484C48.7871 40.811 51.6856 42.1156 54.2227 43.8479C54.6188 44.1182 54.9929 43.4737 54.5968 43.2034C52.2169 41.5812 49.5258 40.3614 46.8505 39.3145C45.8728 38.9278 44.3575 38.2519 43.342 38.8618C42.5718 39.3177 42.512 40.2011 43.0433 40.8424C43.779 41.7289 44.9831 42.2099 46.0268 42.6092C46.4764 42.7821 46.6681 42.0622 46.2249 41.8924Z" fill="black"/>
<path d="M54.4176 43.0737C53.2984 41.4641 51.7265 40.282 50.0132 39.3609C49.114 38.8768 48.1646 38.5152 47.2561 38.0562C46.8222 37.8393 46.3821 37.569 46.1243 37.1445C45.9891 36.9213 45.9074 36.6761 45.9262 36.4152C45.9357 36.2831 45.9702 36.1543 46.0363 36.0411C46.0803 35.9625 46.2689 35.843 46.1274 35.8933C46.445 35.7801 47.0769 36.0191 47.4132 36.1102C48.0703 36.2926 48.7116 36.5158 49.353 36.7453C50.3621 37.1068 51.3901 37.4181 52.2893 38.0154C53.8674 39.0591 55.345 40.3229 56.6623 41.6779C56.9955 42.0206 57.5205 41.4955 57.1873 41.1529C55.8983 39.8262 54.4522 38.6064 52.9337 37.5532C51.9183 36.849 50.8023 36.4781 49.6485 36.0631C48.9317 35.8053 48.2086 35.5538 47.473 35.3557C47.014 35.2331 46.4072 35.0382 45.9294 35.1765C45.1529 35.4029 45.0711 36.5567 45.31 37.176C45.7156 38.2229 46.7971 38.6756 47.7496 39.0937C50.0289 40.0934 52.3207 41.3635 53.77 43.451C54.0435 43.8408 54.688 43.4698 54.4145 43.0769L54.4176 43.0737Z" fill="black"/>
<path d="M44.0592 35.0889C44.0592 35.0889 62.727 46.5575 70.6934 52.078C71.5359 52.6596 72.5231 51.9899 72.9884 50.635C73.4505 49.2831 71.9698 48.3086 71.9698 48.3086C64.016 42.7755 46.6528 32.074 46.6528 32.074C46.6528 32.074 39.7679 29.9457 39.7019 30.4047C39.6359 30.8637 44.0592 35.0889 44.0592 35.0889Z" fill="#9CA7E2"/>
<path d="M43.8708 35.4146C47.8132 37.8353 51.7429 40.2875 55.6601 42.7554C58.8259 44.7517 61.9854 46.7606 65.1229 48.8072C66.4936 49.7 67.858 50.5991 69.2098 51.514C69.7568 51.8849 70.3982 52.5011 71.0552 52.6332C71.9543 52.8123 72.6963 52.0924 73.0798 51.3599C73.5294 50.508 73.5797 49.6214 73.0012 48.8166C72.6711 48.3576 72.2436 48.0495 71.7877 47.7351C70.4327 46.7983 69.0652 45.8866 67.6914 44.9812C64.4973 42.8748 61.2749 40.8125 58.0462 38.7659C55.3017 37.0274 52.5477 35.2983 49.7875 33.5818C49.0015 33.0914 48.2124 32.6041 47.4265 32.1168C47.1467 31.9439 46.892 31.7647 46.5776 31.6641C45.4805 31.3151 44.3676 31.0007 43.2547 30.6958C42.5913 30.5166 41.9217 30.3374 41.2489 30.1865C40.8119 30.089 40.3404 29.957 39.8877 29.9696C38.6113 30.001 39.9537 31.4409 40.2586 31.7804C41.186 32.8084 42.1732 33.7799 43.1666 34.745C43.3741 34.9493 43.5816 35.1505 43.7954 35.3518C44.1412 35.685 44.6662 35.1568 44.3204 34.8267C43.6539 34.1917 42.9969 33.5441 42.3492 32.8902C41.8557 32.3934 41.3652 31.8936 40.8905 31.3749C40.7113 31.1768 40.529 30.9756 40.3561 30.765C40.3089 30.7052 40.1109 30.3563 40.0574 30.3406C40.1737 30.372 39.8656 30.6706 39.8594 30.7115C39.8594 30.7115 39.8153 30.6927 39.8562 30.7115C39.8751 30.721 39.9317 30.7115 39.9537 30.7115C40.1392 30.7241 40.3183 30.7524 40.5038 30.787C41.0823 30.8939 41.6513 31.0416 42.2203 31.1894C43.4401 31.5069 44.6505 31.8559 45.8577 32.2205C46.0212 32.2677 46.1847 32.318 46.3481 32.3683C46.4142 32.3903 46.6437 32.494 46.4613 32.3934C46.5556 32.4437 46.6405 32.5035 46.7285 32.5569C47.3416 32.9342 47.9515 33.3146 48.5614 33.695C50.9821 35.1946 53.3934 36.7036 55.7984 38.222C58.8919 40.1712 61.9759 42.136 65.0411 44.1292C66.4684 45.0598 67.8894 45.9903 69.3041 46.9398C69.9329 47.361 70.5585 47.7854 71.1841 48.2161C71.6054 48.5054 72.0455 48.7694 72.3567 49.1876C72.9478 49.9829 72.646 51.0896 71.8883 51.69C71.2187 52.215 70.5899 51.5517 70.0303 51.1713C68.8011 50.3319 67.5625 49.5114 66.3175 48.694C63.3372 46.7386 60.3317 44.824 57.3168 42.9188C53.0444 40.2183 48.7531 37.543 44.4493 34.8928C44.3801 34.8487 44.311 34.8079 44.2387 34.7639C43.83 34.5124 43.4559 35.1537 43.8645 35.4052L43.8708 35.4146Z" fill="black"/>
<path d="M71.3192 48.8452C71.0551 49.1093 70.8005 49.3796 70.5521 49.6563C70.3006 49.9329 70.0303 50.2159 69.936 50.5837C69.8857 50.7723 69.9957 50.9987 70.1937 51.0427C70.395 51.0867 70.5993 50.983 70.6527 50.7818C70.6559 50.7661 70.659 50.7472 70.6653 50.7315C70.6685 50.7252 70.6968 50.6497 70.6747 50.7032C70.6496 50.7535 70.6779 50.7 70.681 50.6906C70.6873 50.6749 70.6936 50.6592 70.7062 50.6434C70.7219 50.6089 70.7439 50.5774 70.7659 50.546C70.7754 50.5303 70.7848 50.5177 70.7942 50.502C70.8445 50.4328 70.7596 50.5428 70.7911 50.5051C70.8948 50.3794 71.0048 50.2568 71.1149 50.1373C71.3507 49.8764 71.5959 49.6217 71.8442 49.3734C71.9826 49.235 71.992 48.9835 71.8442 48.8483C71.6965 48.7132 71.467 48.7006 71.3192 48.8483V48.8452Z" fill="black"/>
<path d="M46.7659 31.7961C45.9391 31.6484 45.348 32.4029 44.9079 32.997C44.4709 33.5849 44.1439 34.2577 43.949 34.9619C43.8201 35.4241 44.5369 35.6221 44.6658 35.16C44.8262 34.5752 45.0902 34.0282 45.4392 33.5315C45.6027 33.2926 45.7882 33.0662 45.9925 32.8587C46.0868 32.7581 46.1811 32.667 46.2974 32.5978C46.3603 32.5632 46.3918 32.5443 46.4578 32.5255C46.4924 32.516 46.5521 32.5129 46.571 32.516C46.769 32.5538 46.9702 32.4626 47.0268 32.2551C47.0771 32.0759 46.9671 31.8338 46.7659 31.7993V31.7961Z" fill="black"/>
<path d="M71.373 47.6501C72.0458 47.0873 72.6242 46.2605 72.0143 45.4211C71.7094 45.003 71.2504 44.6981 70.848 44.3837C70.4078 44.041 69.9614 43.6983 69.5119 43.3651C67.6004 41.9504 65.6041 40.652 63.5387 39.4731C63.1237 39.2373 62.7464 39.8786 63.1645 40.1176C64.9094 41.111 66.6039 42.1893 68.2386 43.3557C69.0529 43.9341 69.8545 44.5346 70.6342 45.1539C70.9266 45.3866 71.4296 45.6821 71.5239 46.0719C71.6276 46.5089 71.1372 46.883 70.848 47.1219C70.4802 47.43 71.0083 47.955 71.373 47.6501Z" fill="black"/>
<path d="M59.7684 54.8404C58.9447 53.1522 58.8315 51.1308 59.4571 49.3608C60.0796 47.5972 61.4094 46.0064 61.3465 44.139C61.3245 43.4725 61.1202 42.828 60.9661 42.1773C60.7807 41.4039 60.6612 40.6179 60.5826 39.8289C60.5229 39.2252 60.5134 38.543 60.919 38.0966C61.0573 37.9489 61.2397 37.8326 61.4377 37.8074C61.7804 37.7602 62.1168 37.9709 62.3148 38.2538C62.5129 38.5336 62.6009 38.8763 62.6858 39.2095C63.1731 41.0989 63.6572 42.9884 64.1414 44.8746C64.33 45.6166 64.5218 46.3616 64.6287 47.1193C64.7544 47.9776 64.7701 48.8452 64.7796 49.7098C64.7953 51.3571 64.4652 53.0265 64.7293 54.6518C64.8644 55.4849 65.3517 57.3492 65.7982 58.0628L67.7725 62.0114" fill="#FFCDB4"/>
<path d="M60.0899 54.6562C59.3825 53.1566 59.2379 51.4244 59.7001 49.8336C60.1339 48.3372 61.1179 47.0639 61.536 45.5612C61.9856 43.9327 61.3317 42.43 61.0802 40.8298C60.9765 40.1507 60.6967 39.0441 61.1336 38.4342C61.4229 38.0287 61.8473 38.1827 62.0736 38.5663C62.3 38.9467 62.3597 39.4245 62.4666 39.8395C62.9193 41.6095 63.3752 43.3763 63.8279 45.1462C64.2806 46.9193 64.4723 48.6736 64.3938 50.5032C64.3246 52.1254 64.1297 53.7131 64.4849 55.3132C64.7081 56.335 65.0005 57.3536 65.4909 58.2778C66.1763 59.5668 66.7988 60.8935 67.4527 62.2013C67.6664 62.6288 68.3078 62.2547 68.094 61.8272C67.4527 60.5414 66.827 59.243 66.1669 57.9666C65.6764 57.0266 65.384 55.9986 65.1671 54.9611C64.793 53.1723 65.1703 51.3426 65.1514 49.5381C65.142 48.6075 65.1042 47.677 64.9502 46.759C64.7867 45.7907 64.5164 44.8413 64.2711 43.8919C64.0291 42.9456 63.787 42.0024 63.5449 41.0562C63.3217 40.1822 63.1802 39.2139 62.8093 38.3871C62.5421 37.7835 61.9196 37.271 61.2217 37.4754C60.5269 37.6797 60.2408 38.3965 60.1874 39.0473C60.1245 39.8867 60.3037 40.7921 60.4609 41.6126C60.6306 42.4992 60.9827 43.3826 60.9733 44.2943C60.9607 46.2057 59.5366 47.787 58.999 49.5601C58.452 51.3709 58.6406 53.3295 59.4454 55.0334C59.6498 55.4641 60.2911 55.0869 60.0868 54.6562H60.0899Z" fill="black"/>
<path d="M59.8066 47.9312C59.8915 47.9437 60.1461 46.9 59.4105 45.9097C58.6748 44.9225 55.7637 42.7188 55.7637 42.7188L60.9069 45.7682L59.8034 47.928L59.8066 47.9312Z" fill="black"/>
<path d="M98.2829 29.2545C98.2829 29.2545 96.0539 27.9404 94.2808 24.7275C92.5077 21.5145 92.3505 19.1158 93.825 16.0129C95.2994 12.91 96.2268 11.665 98.4998 11.0426C98.4998 11.0426 97.871 7.2103 103.118 4.56952C108.365 1.92874 112.257 2.30914 114.879 2.74298C117.504 3.17368 121.481 5.22972 123.021 6.40864C124.562 7.58756 127.209 9.47383 127.209 9.47383C127.209 9.47383 130.057 7.02482 133.786 9.21289C137.514 11.401 139.347 18.682 139.602 21.6466C139.853 24.608 139.149 32.0085 139.048 34.8033C138.948 37.595 140.485 42.8797 143.946 42.9174C143.946 42.9174 143.179 44.0932 139.253 43.5808C135.326 43.0684 132.795 41.748 131.132 38.994C129.472 36.2369 128.756 32.4141 128.718 30.7604C128.68 29.1036 128.68 27.9342 128.68 27.9342L125.062 33.5175C125.062 33.5175 105.121 34.3129 98.286 29.2545H98.2829Z" fill="#976566"/>
<path d="M103.566 49.132C103.534 49.0534 105.115 49.2138 107.495 48.2581C109.875 47.2992 112.048 45.938 112.048 45.938L111.441 43.6556C111.441 43.6556 108.055 45.086 106.379 44.234C104.704 43.3821 101.576 40.5023 100.136 37.5598C98.699 34.6172 98.8876 31.4451 98.9253 29.8449C98.9662 28.2416 98.897 20.8411 98.897 20.8411C98.897 20.8411 100.975 18.3669 101.689 16.7542C102.399 15.1414 102.402 14.4152 103.119 13.7393C103.836 13.0665 106.536 11.3091 108.338 13.1671C110.139 15.0282 111.648 18.6907 114.078 20.0866C116.509 21.4761 116.741 21.7402 116.741 21.7402C116.741 21.7402 119.118 24.1421 119.662 26.0472C120.206 27.9555 120.504 29.8449 120.504 29.8449C120.504 29.8449 122.262 27.4493 123.884 28.2573C125.506 29.0684 125.572 30.8729 125.258 32.1399C124.943 33.41 123.623 35.1673 122.925 35.9124C122.925 35.9124 122.846 40.1094 123.651 42.5804C124.456 45.0514 124.62 45.9977 127.047 47.7614C129.474 49.525 131.791 50.1223 131.791 50.1223C131.791 50.1223 126.952 51.7099 123.324 52.2035C119.696 52.694 104.43 51.537 103.569 49.1352L103.566 49.132Z" fill="#FFCDB4"/>
<path d="M93.6935 90.4971C93.6935 90.4971 92.1656 90.409 92.4014 91.6603C92.6371 92.9146 96.9473 94.8701 96.9473 94.8701C96.9473 94.8701 103.468 97.5454 107.454 98.2151C111.44 98.8847 112.933 98.7527 114.072 99.0859C115.21 99.4191 119.237 100.815 119.4 101.098C119.567 101.378 121.818 97.995 122.283 95.7944C122.748 93.5968 122.799 92.0312 122.799 92.0312C122.799 92.0312 118.954 91.0189 117.278 89.6891C115.603 88.3593 111.783 85.2752 110.705 84.1969C109.626 83.1217 108.158 80.6885 107.033 80.3646C105.907 80.0377 105.564 81.3109 106.25 82.4364C106.935 83.5619 107.866 85.6839 108.013 85.7248C108.158 85.7625 104.712 85.8977 100.754 84.3132C96.7995 82.7288 95.1836 80.8708 93.8632 80.5281C92.5397 80.1854 91.4331 80.8708 92.2316 81.946L93.0301 83.0243C93.0301 83.0243 90.9049 82.6125 90.7917 83.8951C90.6786 85.1778 92.7032 86.7654 92.7032 86.7654C92.7032 86.7654 90.8986 86.1398 90.7886 87.3721C90.6786 88.6045 92.0084 89.84 93.6935 90.4939V90.4971Z" fill="#FFCDB4"/>
<path d="M117.496 39.5039C117.496 39.5039 114.525 43.6663 111.827 45.1061L111.566 43.3393C111.566 43.3393 116.625 40.3402 117.496 39.5039Z" fill="black"/>
<path d="M102.741 101.03C102.671 100.848 103.473 102.857 103.473 102.857C103.473 102.857 112.282 102.561 113.734 102.146C115.187 101.731 114.907 101.121 114.907 101.121C114.907 101.121 130.554 108.569 134.257 110.068C137.957 111.565 144.314 112.945 144.314 112.945L143.805 110.942C143.805 110.942 121.559 102.294 119.871 101.448C118.186 100.606 115.111 98.9677 114.071 99.084C114.071 99.084 114.391 100.326 112.471 100.841C110.55 101.357 102.741 101.027 102.741 101.027V101.03Z" fill="black"/>
<path d="M136.43 73.4275C136.43 73.4275 139.159 89.1716 140.325 91.5295L140.671 86.207C140.671 86.207 135.896 68.5452 136.427 73.4275H136.43Z" fill="black"/>
<path d="M106.004 115.809C106.004 115.809 100.299 152.86 100.666 154.832H153.909C153.909 154.832 147.008 124.375 146.766 124.077C146.766 124.077 140.211 125.878 128.956 123.778C117.698 121.675 112.442 119.751 106.004 115.809Z" fill="#F5F5FF"/>
<path d="M108.112 85.2531C108.112 85.2531 103.437 75.413 101.959 72.6559C100.482 69.8988 97.451 70.3892 97.451 70.3892H54.0792C50.1369 70.3892 52.1772 73.1621 52.1772 73.1621C56.5691 81.9835 67.9339 98.1112 67.9339 98.1112C67.9339 98.1112 69.3895 101.098 71.958 101.051C73.489 101.022 111.397 101.051 111.397 101.051C111.397 101.051 114.28 101.55 114.057 99.3152" fill="#F5F5FF"/>
<path d="M93.0018 83.287C93.0018 83.287 91.4613 82.7494 90.7917 83.8969C90.1252 85.0444 92.7031 86.764 92.7031 86.764C92.7031 86.764 91.147 86.7012 90.7823 87.6034C90.4176 88.5057 93.3916 90.4957 93.3916 90.4957C93.3916 90.4957 91.9518 90.524 92.4013 91.6589C92.854 92.797 94.8944 93.9193 96.9473 94.8687C99.0002 95.8182 105.193 97.9151 108.485 98.2797C111.777 98.6444 114.182 98.8959 115.254 99.3141C116.322 99.729 119.617 101.323 119.617 101.323C119.617 101.323 122.066 97.4749 122.459 95.2554C122.849 93.0391 122.912 92.2405 122.912 92.2405C122.912 92.2405 118.363 90.6246 117.508 89.9424C116.656 89.2602 113.657 86.5534 112.679 86.019C111.704 85.4814 109.167 81.6774 108.095 80.9229C107.02 80.1684 105.583 80.2155 105.898 81.6302C106.215 83.0449 108.362 85.8964 108.362 85.8964C108.362 85.8964 102.339 84.8495 101.072 84.4597C99.805 84.0698 94.5988 80.794 93.8601 80.5299C93.1213 80.2658 92.0241 80.4136 91.9266 81.3882C91.8292 82.3627 92.9987 83.287 92.9987 83.287H93.0018Z" fill="#FFCDB4"/>
<path d="M122.767 35.6355C122.32 37.6758 122.587 39.8639 123.037 41.8791C123.244 42.8159 123.509 43.7465 123.87 44.6393C124.115 45.2429 124.392 45.9 124.86 46.3715C125.2 46.7111 125.725 46.1829 125.385 45.8465C124.977 45.4347 124.738 44.8311 124.53 44.2998C124.2 43.4541 123.952 42.5707 123.754 41.6842C123.332 39.8042 123.065 37.7387 123.483 35.8367C123.584 35.3683 122.867 35.1702 122.767 35.6386V35.6355Z" fill="black"/>
<path d="M111.126 45.9497C108.8 47.3581 106.429 48.5213 103.694 48.7477C102.641 48.8326 101.588 48.8923 100.544 49.0526C98.9376 49.301 97.3689 49.7474 95.8379 50.2881C94.1905 50.8666 92.6406 51.6054 91.3831 52.844C90.3488 53.8595 89.5943 55.1107 89.0315 56.4405C88.0192 58.8392 87.6137 61.4392 86.5417 63.819C85.5702 65.9694 84.4951 68.0757 83.3979 70.1663C83.1747 70.5876 83.8191 70.9648 84.0392 70.5404C84.9823 68.7453 85.8972 66.9345 86.7617 65.1048C87.249 64.0768 87.7206 63.0425 88.0601 61.9547C88.4688 60.6438 88.7958 59.3045 89.2359 58.003C89.6855 56.6606 90.2702 55.3433 91.1473 54.2179C92.1722 52.9069 93.5618 51.9481 95.1085 51.3445C96.737 50.7063 98.4346 50.1844 100.161 49.8669C101.223 49.672 102.292 49.5934 103.367 49.5148C104.49 49.4299 105.599 49.2821 106.675 48.9426C108.385 48.3987 109.975 47.5153 111.5 46.591C111.912 46.3427 111.538 45.6982 111.126 45.9466V45.9497Z" fill="black"/>
<path d="M125.119 46.7033C126.361 48.0394 128.143 48.8599 129.791 49.5736C131.539 50.3312 133.337 50.9537 135.132 51.5919C137.065 52.2835 138.964 53.1355 140.825 54.0063C143.249 55.1412 145.321 56.6723 146.927 58.832C148.653 61.1522 149.817 63.8307 150.804 66.5312C150.967 66.9776 151.687 66.7858 151.52 66.3331C149.773 61.5546 147.383 56.7634 142.781 54.1698C141.558 53.4782 140.259 52.9343 138.97 52.3873C138.071 52.0069 137.194 51.573 136.283 51.2241C134.613 50.5859 132.912 50.042 131.252 49.3818C129.316 48.6084 127.096 47.7345 125.644 46.1751C125.317 45.823 124.792 46.3481 125.119 46.7002V46.7033Z" fill="black"/>
<path d="M135.704 70.7251C136.6 74.5133 137.788 78.2387 139.033 81.9232C140.309 85.6989 141.668 89.4463 143.205 93.1214C143.805 94.555 144.418 95.9917 145.167 97.3561C145.399 97.7742 146.041 97.4001 145.808 96.9788C144.293 94.2217 143.192 91.21 142.083 88.2706C140.608 84.3565 139.25 80.3954 138.033 76.3933C137.445 74.4536 136.889 72.5013 136.421 70.527C136.311 70.0617 135.594 70.2598 135.704 70.7251Z" fill="black"/>
<path d="M122.836 92.0323C127.35 93.0603 131.858 94.1166 136.357 95.2201C140.903 96.333 145.455 97.4553 149.935 98.8135C151.306 99.2316 152.796 99.6057 154.057 100.31C154.475 100.546 154.852 99.9012 154.431 99.6686C153.343 99.0618 152.089 98.7066 150.907 98.3356C148.932 97.7163 146.939 97.1693 144.94 96.6348C140.032 95.3239 135.09 94.1292 130.148 92.9629C127.778 92.4064 125.407 91.8563 123.034 91.3155C122.568 91.2086 122.37 91.9254 122.836 92.0323Z" fill="black"/>
<mask id="mask1_500_2254" style="mask-type:luminance" maskUnits="userSpaceOnUse" x="118" y="65" width="44" height="50">
<path d="M118.708 65.8281H161.769V114.117H118.708V65.8281Z" fill="white"/>
</mask>
<g mask="url(#mask1_500_2254)">
<path d="M119.258 101.766C125.882 104.385 132.506 107.004 139.152 109.569C141.676 110.544 144.204 111.6 146.804 112.367C150.4 113.427 154.701 114.015 158.046 111.902C159.316 111.1 160.303 110.057 160.816 108.645C161.385 107.086 161.583 105.382 161.646 103.731C161.737 101.471 161.511 99.1916 161.014 96.9815C160.696 95.5605 160.209 94.1993 159.744 92.8255C158.106 87.9809 156.631 83.0766 155.132 78.188C153.94 74.3054 152.758 70.4197 151.582 66.5308C151.564 66.4648 151.545 66.4019 151.523 66.3359C151.388 65.8769 150.668 66.0718 150.806 66.5339C151.765 69.7155 152.733 72.8938 153.708 76.0722C155.27 81.1777 156.826 86.2895 158.48 91.3636C159.363 94.0767 160.363 96.7237 160.718 99.5752C160.976 101.625 161.014 103.728 160.728 105.778C160.549 107.057 160.288 108.557 159.505 109.629C158.48 111.031 156.763 111.93 155.104 112.314C153.214 112.748 151.224 112.6 149.338 112.229C146.48 111.666 143.761 110.547 141.051 109.506C134.534 107.01 128.042 104.442 121.553 101.876C120.855 101.603 120.157 101.326 119.459 101.05C119.013 100.87 118.818 101.593 119.261 101.766H119.258Z" fill="black"/>
</g>
<path d="M108.431 85.0663C107.413 82.9191 106.385 80.7751 105.347 78.6404C104.627 77.1471 103.901 75.657 103.156 74.1763C102.471 72.8087 101.851 71.35 100.44 70.5829C99.7922 70.2308 99.0691 70.0453 98.3366 69.995C98.1165 69.9824 97.8933 69.9793 97.6733 69.995C97.6104 70.0013 97.1986 70.0233 97.4469 70.0202C97.208 70.0233 96.9691 70.0202 96.727 70.0202H55.1849C54.4084 70.0202 53.6036 69.973 52.8396 70.1365C52.2266 70.2654 51.5978 70.5829 51.3715 71.2085C51.2049 71.6581 51.2835 72.1548 51.4532 72.5918C51.5601 72.8653 51.711 73.0979 51.8556 73.3526C52.2486 74.0348 52.5787 74.7641 52.956 75.4589C56.5462 82.0389 60.7526 88.3013 64.9747 94.4883C65.8424 95.7615 66.8075 97.0002 67.6155 98.3111C68.2882 99.4052 69.049 100.461 70.2468 101.037C70.9888 101.392 71.737 101.427 72.5355 101.423C76.8016 101.405 81.0678 101.414 85.3339 101.414C91.3165 101.414 97.3023 101.417 103.291 101.423C105.372 101.423 107.45 101.427 109.532 101.427C110.047 101.427 110.56 101.427 111.075 101.427C111.176 101.427 111.273 101.427 111.374 101.427C111.453 101.427 111.21 101.405 111.352 101.42C111.559 101.442 111.761 101.467 111.968 101.474C113.32 101.493 114.546 100.823 114.427 99.3171C114.392 98.8424 113.647 98.8393 113.685 99.3171C113.741 100.065 113.405 100.521 112.672 100.672C112.443 100.719 112.204 100.732 111.968 100.729C111.864 100.726 111.761 100.719 111.657 100.71C111.588 100.707 111.427 100.688 111.515 100.697C111.283 100.675 111.047 100.682 110.808 100.682C109.274 100.682 107.737 100.678 106.199 100.678C100.603 100.672 95.0073 100.669 89.4082 100.669C84.3907 100.669 79.3701 100.663 74.3526 100.672C73.0794 100.672 71.476 100.902 70.338 100.238C69.0207 99.4712 68.2788 97.9684 67.4268 96.7424C63.6008 91.2282 59.8629 85.6385 56.389 79.898C55.427 78.3103 54.487 76.7102 53.6004 75.0817C53.22 74.3869 52.8899 73.6607 52.5001 72.9753C52.3869 72.7804 52.258 72.6044 52.17 72.3937C51.3495 70.4194 54.4587 70.7652 55.6691 70.7652H88.4054C91.414 70.7652 94.4383 70.8501 97.4469 70.7652C97.6921 70.759 97.3966 70.759 97.601 70.7464C97.8242 70.7307 98.0411 70.7244 98.2643 70.737C98.9591 70.7747 99.6476 70.9664 100.242 71.3311C101.506 72.1045 102.075 73.6764 102.71 74.9496C104.149 77.8388 105.545 80.7468 106.938 83.6611C107.221 84.2552 107.507 84.8494 107.79 85.4436C107.994 85.8743 108.636 85.5002 108.431 85.0695V85.0663Z" fill="black"/>
<path d="M111.078 43.7531C111.191 44.3347 111.248 44.91 111.273 45.5168C111.305 46.2116 111.305 46.9409 111.078 47.6106C110.927 48.0633 111.647 48.2582 111.798 47.8086C112.04 47.0824 112.05 46.2745 112.018 45.5168C111.99 44.8597 111.921 44.2027 111.798 43.5551C111.76 43.357 111.522 43.247 111.339 43.2973C111.135 43.3539 111.041 43.5551 111.078 43.7531Z" fill="black"/>
<path d="M109.639 44.5049C111.915 43.7913 114.009 42.3577 115.898 40.9399C116.719 40.3237 117.593 39.6729 118.269 38.8901C118.58 38.5286 118.058 38.0005 117.744 38.3651C117.106 39.1008 116.295 39.717 115.524 40.2986C114.55 41.0279 113.534 41.707 112.491 42.3326C111.522 42.911 110.519 43.4486 109.441 43.7882C108.985 43.9328 109.18 44.6496 109.639 44.5049Z" fill="black"/>
<path d="M98.3428 21.9369C98.5345 23.908 98.6194 25.8823 98.6006 27.8598C98.5786 29.8026 98.3994 31.7644 98.6006 33.7041C98.7986 35.6469 99.4337 37.2503 100.462 38.819C100.993 39.6301 101.581 40.4035 102.169 41.1706C102.754 41.9282 103.36 42.6827 104.068 43.3241C105.627 44.7388 107.639 45.094 109.638 44.503C110.097 44.371 109.902 43.651 109.44 43.7862C107.667 44.3081 105.913 44.0189 104.536 42.7488C103.206 41.5195 102.093 39.9539 101.103 38.4449C100.103 36.9202 99.4808 35.3011 99.3205 33.4777C99.1633 31.6669 99.3173 29.8404 99.3425 28.0233C99.3708 25.9892 99.2859 23.9646 99.0879 21.9369C99.0438 21.4653 98.2988 21.4622 98.3459 21.9369H98.3428Z" fill="black"/>
<path d="M120.764 30.1014C121.478 29.1897 122.902 27.9605 124.046 28.9948C124.911 29.7776 125.008 31.2709 124.782 32.3366C124.521 33.5501 123.851 34.5907 122.93 35.4144C121.99 36.2538 120.742 37.1497 119.441 37.2032C118.963 37.2221 118.96 37.9671 119.441 37.9451C120.726 37.8917 121.855 37.1938 122.855 36.433C123.795 35.7099 124.603 34.8391 125.093 33.7482C125.558 32.7044 125.744 31.5507 125.533 30.4189C125.342 29.3909 124.769 28.2748 123.694 27.9667C122.289 27.5675 121.047 28.5389 120.236 29.5764C119.944 29.9505 120.469 30.4786 120.761 30.1014H120.764Z" fill="black"/>
<path d="M123.836 30.5088C122.962 30.1315 122.198 30.7949 121.629 31.3922C121.089 31.9549 120.645 32.612 120.331 33.3256C120.252 33.5111 120.277 33.728 120.466 33.8349C120.623 33.9292 120.894 33.8884 120.975 33.7029C121.236 33.1087 121.582 32.5523 122.019 32.065C122.236 31.8229 122.469 31.5903 122.726 31.3922C122.909 31.2476 123.22 31.0432 123.462 31.1501C123.648 31.2287 123.861 31.2036 123.971 31.0181C124.063 30.8609 124.025 30.5874 123.839 30.5088H123.836Z" fill="black"/>
<path d="M121.491 32.5508C121.428 32.5256 121.494 32.5571 121.507 32.5634C121.538 32.5791 121.485 32.5288 121.525 32.5759C121.532 32.5822 121.591 32.6482 121.566 32.6168C121.541 32.5854 121.595 32.6671 121.595 32.6671C121.607 32.686 121.617 32.708 121.629 32.7268C121.676 32.8243 121.617 32.6954 121.639 32.7551C121.657 32.8117 121.673 32.8652 121.683 32.9249C121.686 32.9406 121.695 33.0192 121.689 32.9438C121.689 32.9658 121.692 32.9909 121.695 33.0098C121.698 33.0695 121.698 33.123 121.695 33.1827C121.695 33.2078 121.692 33.2393 121.689 33.2676C121.686 33.3116 121.702 33.2173 121.689 33.2864C121.676 33.343 121.667 33.3965 121.651 33.4531C121.639 33.5034 121.62 33.5505 121.604 33.5977C121.595 33.6228 121.573 33.67 121.595 33.6197C121.582 33.648 121.569 33.6731 121.557 33.6983C121.532 33.7486 121.503 33.7957 121.472 33.846C121.456 33.8712 121.441 33.8932 121.425 33.9152C121.409 33.9403 121.397 33.9529 121.422 33.9246C121.349 34.0126 121.268 34.0912 121.183 34.1667C121.211 34.1415 121.202 34.1541 121.176 34.1698C121.151 34.1824 121.129 34.2013 121.104 34.217C121.054 34.2516 120.997 34.2799 120.941 34.305C120.762 34.3962 120.711 34.6508 120.809 34.8143C120.916 34.9998 121.136 35.0375 121.318 34.9495C121.862 34.6854 122.271 34.1384 122.393 33.5505C122.531 32.9029 122.377 32.0887 121.689 31.834C121.507 31.7648 121.274 31.9095 121.233 32.0949C121.186 32.3056 121.296 32.4785 121.494 32.5508H121.491Z" fill="black"/>
<path d="M101.786 23.2836C101.877 23.2616 101.972 23.2428 102.066 23.2239C102.113 23.2176 102.16 23.205 102.204 23.1988C102.229 23.1956 102.251 23.1925 102.277 23.1893C102.236 23.1925 102.239 23.1925 102.283 23.1893C102.468 23.1705 102.654 23.1547 102.839 23.161C102.88 23.161 102.921 23.1642 102.962 23.1705C102.975 23.1705 103.116 23.1862 103.034 23.1768C103.125 23.1893 103.213 23.205 103.301 23.2302C103.345 23.2428 103.386 23.2553 103.43 23.2711C103.449 23.2774 103.471 23.2836 103.49 23.2931C103.452 23.2774 103.452 23.2774 103.493 23.2931C103.572 23.3339 103.647 23.3748 103.723 23.422C103.883 23.532 104.141 23.4597 104.232 23.2899C104.329 23.1044 104.27 22.897 104.1 22.7806C103.371 22.2933 102.402 22.3688 101.588 22.5669C101.399 22.614 101.267 22.8372 101.33 23.0258C101.393 23.2208 101.585 23.3339 101.786 23.2836Z" fill="black"/>
<path d="M111.947 26.9861C112.038 27.0647 112.107 27.2722 112.139 27.3885C112.217 27.7092 112.233 28.0455 112.183 28.3725C112.161 28.514 112.126 28.6586 112.048 28.778C111.972 28.9007 111.843 28.9981 111.699 29.0075C111.497 29.0201 111.321 28.8661 111.221 28.6869C111.092 28.4605 111.054 28.1933 111.073 27.9324C111.098 27.6714 111.177 27.4199 111.274 27.1779C111.309 27.0961 111.35 27.0081 111.419 26.9515C111.491 26.8949 111.573 26.8603 111.717 26.8635C111.812 26.8635 111.881 26.9295 111.947 26.9861Z" fill="black"/>
<path d="M111.682 27.2467C111.726 27.2908 111.654 27.1902 111.689 27.253C111.701 27.2782 111.717 27.3065 111.73 27.3316C111.701 27.275 111.73 27.3285 111.739 27.3568C111.752 27.3914 111.761 27.4291 111.77 27.4637C111.792 27.536 111.805 27.6083 111.818 27.6837C111.818 27.6837 111.827 27.7466 111.824 27.712C111.818 27.6774 111.827 27.7403 111.827 27.7403C111.83 27.7875 111.833 27.8315 111.836 27.8786C111.84 27.9572 111.84 28.039 111.836 28.1176C111.833 28.1553 111.83 28.1962 111.827 28.2339C111.827 28.2528 111.824 28.2748 111.821 28.2936C111.827 28.2559 111.821 28.2905 111.818 28.3062C111.805 28.3848 111.789 28.4602 111.761 28.5357C111.745 28.5766 111.761 28.5357 111.761 28.5294C111.755 28.5451 111.745 28.5608 111.736 28.5766C111.726 28.5891 111.72 28.6049 111.711 28.6174C111.73 28.5891 111.733 28.5891 111.708 28.6111C111.654 28.6583 111.742 28.5954 111.682 28.63C111.623 28.6646 111.726 28.6174 111.66 28.6394C111.67 28.6363 111.723 28.6394 111.682 28.6363C111.638 28.6332 111.698 28.6426 111.704 28.6426C111.689 28.6394 111.676 28.6332 111.657 28.63C111.619 28.6237 111.692 28.6552 111.66 28.63C111.654 28.6237 111.597 28.5891 111.635 28.6143C111.667 28.6394 111.626 28.608 111.623 28.6049C111.607 28.5891 111.557 28.5326 111.594 28.5797C111.575 28.5577 111.557 28.5263 111.541 28.498C111.531 28.4823 111.525 28.4665 111.516 28.4508C111.487 28.3974 111.531 28.4948 111.509 28.4382C111.484 28.3659 111.469 28.2936 111.45 28.2213C111.44 28.1804 111.45 28.2213 111.45 28.2276C111.45 28.2119 111.447 28.1899 111.447 28.1742C111.443 28.1301 111.44 28.0861 111.443 28.0421C111.443 27.9981 111.447 27.9541 111.45 27.9101C111.456 27.8661 111.45 27.9038 111.45 27.9132C111.453 27.8944 111.456 27.8724 111.459 27.8566C111.475 27.7718 111.497 27.69 111.519 27.6083C111.544 27.5203 111.575 27.4354 111.61 27.3505C111.616 27.3316 111.623 27.3128 111.632 27.297C111.654 27.2373 111.604 27.3348 111.635 27.2876C111.645 27.275 111.651 27.2593 111.66 27.2436C111.676 27.2153 111.689 27.2153 111.663 27.2373C111.604 27.2939 111.67 27.2185 111.698 27.2216C111.698 27.2216 111.629 27.2499 111.673 27.2373C111.717 27.2247 111.61 27.2342 111.67 27.2373C111.673 27.2373 111.723 27.2373 111.723 27.2373C111.72 27.2467 111.657 27.2216 111.651 27.2216C111.654 27.2216 111.698 27.253 111.66 27.2247C111.619 27.1964 111.689 27.2499 111.692 27.253C111.836 27.3819 112.075 27.4039 112.217 27.253C112.346 27.1116 112.374 26.8632 112.217 26.7249C112.119 26.64 112.022 26.5614 111.896 26.5205C111.767 26.4797 111.61 26.4859 111.478 26.5205C111.208 26.5897 111.041 26.8035 110.94 27.0487C110.752 27.5014 110.642 27.9887 110.752 28.476C110.862 28.9633 111.283 29.4757 111.84 29.3625C112.383 29.2556 112.547 28.674 112.585 28.1993C112.607 27.9227 112.581 27.6397 112.522 27.3694C112.471 27.143 112.387 26.8915 112.22 26.7249C112.082 26.5866 111.83 26.574 111.692 26.7249C111.557 26.8726 111.544 27.1053 111.692 27.2499L111.682 27.2467Z" fill="black"/>
<path d="M102.854 26.6736C102.942 26.7553 103.015 26.9597 103.043 27.076C103.121 27.3966 103.137 27.733 103.09 28.06C103.068 28.2046 103.033 28.3461 102.955 28.4687C102.879 28.5913 102.751 28.6856 102.606 28.695C102.402 28.7107 102.225 28.5536 102.125 28.3775C101.999 28.148 101.958 27.8808 101.98 27.6199C102.002 27.3589 102.084 27.1106 102.181 26.8685C102.216 26.7836 102.257 26.6956 102.326 26.6421C102.395 26.5855 102.477 26.5478 102.622 26.551C102.716 26.5541 102.788 26.617 102.851 26.6767L102.854 26.6736Z" fill="black"/>
<path d="M102.59 26.9355C102.634 26.9795 102.565 26.8789 102.596 26.9418C102.612 26.9669 102.625 26.9921 102.637 27.0204C102.609 26.9638 102.637 27.0172 102.647 27.0455C102.659 27.0801 102.669 27.1147 102.678 27.1524C102.7 27.2247 102.713 27.297 102.725 27.3693C102.725 27.3693 102.735 27.4322 102.732 27.3976C102.725 27.363 102.735 27.4291 102.735 27.4291C102.738 27.4731 102.741 27.5202 102.744 27.5674C102.747 27.646 102.747 27.7246 102.744 27.8032C102.741 27.844 102.738 27.8818 102.735 27.9226C102.735 27.9415 102.732 27.9604 102.729 27.9792C102.735 27.9415 102.729 27.9792 102.725 27.9949C102.713 28.0704 102.697 28.149 102.669 28.2213C102.653 28.2622 102.669 28.2213 102.669 28.215C102.662 28.2339 102.653 28.2464 102.644 28.2622C102.634 28.2779 102.628 28.2905 102.618 28.303C102.637 28.2779 102.644 28.2747 102.615 28.2999C102.565 28.347 102.653 28.2842 102.59 28.3187C102.53 28.3533 102.634 28.3062 102.568 28.325C102.578 28.325 102.631 28.325 102.59 28.3219C102.546 28.3187 102.609 28.3282 102.612 28.3282C102.596 28.325 102.584 28.3187 102.568 28.3187C102.527 28.3125 102.6 28.3439 102.571 28.3187C102.562 28.3125 102.505 28.2747 102.543 28.303C102.574 28.3282 102.534 28.2936 102.53 28.2905C102.515 28.2747 102.464 28.2181 102.502 28.2684C102.483 28.2433 102.464 28.215 102.452 28.1867C102.439 28.171 102.433 28.1553 102.424 28.1364C102.395 28.083 102.439 28.1804 102.417 28.1238C102.392 28.0547 102.38 27.9824 102.358 27.9101C102.348 27.8692 102.358 27.9069 102.358 27.9163C102.358 27.8975 102.354 27.8786 102.354 27.8598C102.351 27.8157 102.348 27.7749 102.351 27.7309C102.351 27.6868 102.354 27.6428 102.358 27.5988C102.358 27.5925 102.364 27.5548 102.358 27.5988C102.361 27.58 102.364 27.5611 102.37 27.5422C102.383 27.4605 102.405 27.3788 102.427 27.297C102.455 27.2058 102.483 27.121 102.518 27.0361C102.524 27.0204 102.534 27.0015 102.54 26.9826C102.562 26.926 102.512 27.0235 102.543 26.9764C102.552 26.9606 102.559 26.9449 102.568 26.9292C102.584 26.9009 102.596 26.904 102.571 26.926C102.512 26.9826 102.578 26.9072 102.606 26.9103C102.606 26.9103 102.537 26.9386 102.581 26.9229C102.625 26.9103 102.518 26.9198 102.578 26.9229C102.581 26.9229 102.631 26.9229 102.631 26.9229C102.628 26.9323 102.565 26.9103 102.559 26.9072C102.565 26.9072 102.609 26.9386 102.571 26.9135C102.53 26.8852 102.596 26.9386 102.6 26.9386C102.744 27.0675 102.983 27.0927 103.125 26.9386C103.254 26.7972 103.282 26.5519 103.125 26.4136C103.027 26.3256 102.93 26.2501 102.807 26.2093C102.675 26.1653 102.518 26.1747 102.386 26.2093C102.115 26.2784 101.952 26.4891 101.848 26.7374C101.66 27.1901 101.553 27.6774 101.66 28.1647C101.77 28.6488 102.191 29.1613 102.747 29.0513C103.291 28.9412 103.455 28.3628 103.492 27.8849C103.514 27.6083 103.489 27.3285 103.43 27.0581C103.382 26.8286 103.294 26.5802 103.128 26.4105C102.989 26.2753 102.738 26.2627 102.6 26.4105C102.464 26.5582 102.455 26.7909 102.6 26.9386L102.59 26.9355Z" fill="black"/>
<path d="M113.675 22.681C112.66 22.2566 111.474 22.1906 110.415 22.4861C109.956 22.615 110.151 23.3349 110.613 23.2029C111.556 22.9419 112.578 23.0237 113.477 23.3978C113.663 23.4732 113.889 23.3129 113.936 23.1368C113.993 22.9231 113.861 22.7564 113.675 22.681Z" fill="black"/>
<path d="M104.712 28.7772C104.656 29.3148 104.47 29.821 104.2 30.2862C104.09 30.4749 103.974 30.6603 103.835 30.827C103.669 31.0313 103.483 31.2325 103.357 31.4683C103.103 31.9367 103.169 32.4586 103.502 32.8704C103.769 33.2037 104.175 33.4017 104.379 33.7916C104.605 34.2128 105.247 33.8387 105.024 33.4174C104.797 32.993 104.445 32.7887 104.137 32.4743C104.03 32.3611 103.933 32.2228 103.936 32.0593C103.939 31.8581 104.102 31.6664 104.225 31.5186C104.888 30.7138 105.344 29.8272 105.457 28.7772C105.476 28.5792 105.269 28.4062 105.083 28.4062C104.866 28.4062 104.734 28.5792 104.712 28.7772Z" fill="black"/>
<path d="M98.8838 28.9103C97.2239 26.4142 97.7049 22.8397 99.2705 20.4095C99.8741 19.4695 100.701 18.7276 101.386 17.8536C102.166 16.857 102.644 15.7158 102.905 14.4803C103.005 14.0151 102.289 13.8139 102.188 14.2823C101.905 15.6215 101.364 16.7816 100.459 17.8096C99.6603 18.7244 98.8335 19.5796 98.2582 20.6642C96.8875 23.2452 96.5668 26.7694 98.2425 29.2844C98.5066 29.6806 99.151 29.3096 98.8838 28.9103Z" fill="black"/>
<path d="M116.244 21.7383C117.388 23.0304 118.551 24.3948 119.24 25.995C119.777 27.2431 119.956 28.6075 120.142 29.9404C120.208 30.412 120.928 30.214 120.862 29.7424C120.664 28.3371 120.456 26.9318 119.884 25.6209C119.158 23.9672 117.957 22.5525 116.772 21.2133C116.454 20.8549 115.926 21.3831 116.244 21.7383Z" fill="black"/>
<path d="M119.849 21.1114C118.255 21.4478 116.674 21.2057 115.256 20.4041C114.165 19.7879 113.131 18.9296 112.247 18.0431C111.009 16.795 110.512 15.1068 109.427 13.7581C108.987 13.2079 108.453 12.6861 107.824 12.3528C107.186 12.0133 106.551 12.0039 105.844 12.0856C104.347 12.2554 103.225 12.9627 102.282 14.1133C101.983 14.478 102.505 15.0093 102.81 14.6384C103.633 13.6292 104.583 12.9627 105.916 12.8213C106.658 12.7427 107.22 12.7961 107.837 13.2362C108.497 13.7078 109.022 14.3774 109.437 15.0659C109.877 15.7921 110.198 16.5812 110.676 17.2886C111.128 17.9582 111.663 18.5555 112.276 19.0805C113.169 19.8571 114.077 20.6367 115.133 21.1837C116.671 21.9823 118.35 22.1835 120.044 21.8282C120.512 21.7307 120.314 21.014 119.846 21.1114H119.849Z" fill="black"/>
<path d="M104.043 15.3665C104.178 15.0553 104.389 14.8101 104.628 14.5743C104.895 14.3102 105.178 14.0587 105.474 13.8229C105.951 13.4488 106.618 12.9018 107.269 13.0433C107.734 13.1439 107.935 12.4271 107.467 12.3265C106.583 12.1347 105.8 12.644 105.128 13.1565C104.788 13.4205 104.458 13.7003 104.15 14.0021C103.839 14.3071 103.568 14.6057 103.402 14.9893C103.32 15.1748 103.348 15.3885 103.534 15.4986C103.691 15.5897 103.961 15.552 104.043 15.3665Z" fill="black"/>
<path d="M98.8584 10.9428C98.7107 10.094 99.1068 9.10999 99.4589 8.35234C99.8644 7.46894 100.421 6.727 101.166 6.0951C102.908 4.60495 105.111 3.57064 107.378 3.24054C108.62 3.06134 109.89 2.99847 111.141 2.94188C112.396 2.88215 113.65 2.87586 114.876 3.11479C116.046 3.34743 117.118 3.83157 118.177 4.36602C119.312 4.93819 120.444 5.5135 121.575 6.08881C123.518 7.07282 125.339 8.14171 126.898 9.68531C128.3 11.0749 129.18 12.8197 129.825 14.6714C130.469 16.523 130.859 18.6828 130.916 20.7137C130.96 22.1944 130.803 23.6909 130.287 25.0867C129.891 26.165 129.259 27.0767 128.514 27.9381C127.061 29.6106 125.681 31.3083 124.735 33.3235C124.534 33.7542 125.175 34.1314 125.379 33.6976C126.297 31.7358 127.627 30.0885 129.039 28.4632C129.759 27.6332 130.381 26.7749 130.812 25.7626C131.39 24.4077 131.636 22.9395 131.661 21.4714C131.705 19.2959 131.346 17.0292 130.699 14.9574C130.127 13.1183 129.297 11.2226 128.005 9.77333C126.521 8.11027 124.66 6.82132 122.682 5.8153C121.459 5.19598 120.239 4.57665 119.016 3.96047C117.91 3.39773 116.791 2.81927 115.58 2.51118C113.141 1.88871 110.446 2.15279 107.975 2.42001C105.262 2.71238 102.716 3.78756 100.635 5.56694C99.7733 6.29945 99.1508 7.18285 98.7012 8.21716C98.3114 9.11628 97.9656 10.1443 98.1385 11.1377C98.2202 11.6093 98.937 11.4081 98.8553 10.9397L98.8584 10.9428Z" fill="black"/>
<path d="M127.64 9.87599C128.25 9.10262 129.429 8.89513 130.353 8.87626C131.834 8.85111 133.264 9.39499 134.393 10.3476C136.735 12.3187 137.838 15.5442 138.58 18.4145C139.414 21.6275 139.684 24.9756 139.37 28.2766C139.061 31.5084 138.131 34.9068 139.052 38.1229C139.803 40.7448 141.859 43.2504 144.752 43.3951C145.23 43.4202 145.23 42.6751 144.752 42.65C142.039 42.5148 140.209 39.9243 139.656 37.4753C138.879 34.0643 140.02 30.5055 140.199 27.0882C140.376 23.7715 139.973 20.4171 139.027 17.2325C138.184 14.4093 136.98 11.3693 134.556 9.53017C133.305 8.58075 131.736 8.06202 130.161 8.14062C129.111 8.19092 127.804 8.477 127.115 9.35098C126.82 9.72194 127.341 10.2532 127.64 9.87599Z" fill="black"/>
<path d="M128.539 28.7021C128.209 34.0026 129.69 39.9349 134.537 42.8366C135.814 43.6006 137.31 44.1539 138.807 43.8646C139.278 43.7735 139.077 43.0567 138.609 43.1479C137.015 43.4591 135.336 42.5694 134.094 41.6451C132.928 40.7774 131.963 39.6457 131.221 38.4007C129.492 35.4927 129.08 32.0251 129.287 28.7021C129.316 28.2243 128.574 28.2243 128.542 28.7021H128.539Z" fill="black"/>
<path d="M132.808 37.5185C132.833 40.0179 134.317 42.4103 136.7 43.2654C137.791 43.6552 138.954 43.8596 140.105 43.9665C141.098 44.0576 142.157 44.0922 143.129 43.825C143.588 43.6992 143.393 42.9825 142.931 43.1082C142.082 43.344 141.158 43.3063 140.287 43.2371C139.249 43.1554 138.206 42.9699 137.212 42.6555C136.266 42.3537 135.508 41.8916 134.864 41.1213C134.021 40.1153 133.562 38.8295 133.55 37.5185C133.543 37.0407 132.802 37.0407 132.805 37.5185H132.808Z" fill="black"/>
<path d="M98.4029 10.6853C95.6646 11.402 94.0393 14.0774 93.2219 16.6081C92.8509 17.7525 92.5806 18.9817 92.6592 20.1889C92.7566 21.6885 93.203 23.1598 93.7909 24.5336C94.4134 25.9861 95.2434 27.4888 96.4726 28.5168C96.8373 28.8249 97.3686 28.2999 96.9976 27.9918C95.9979 27.1524 95.2999 25.9892 94.7372 24.826C94.1242 23.5559 93.6557 22.1727 93.464 20.7705C93.1402 18.4536 94.011 15.8819 95.2874 13.9642C96.0828 12.7696 97.1862 11.773 98.6009 11.4052C99.0631 11.2826 98.865 10.5658 98.3997 10.6853H98.4029Z" fill="black"/>
<path d="M103.115 49.9383C104.87 51.0449 107.033 51.4819 109.048 51.8466C110.981 52.1955 112.93 52.4942 114.892 52.6105C117.052 52.7394 119.227 52.7646 121.387 52.7237C123.119 52.6922 124.861 52.3842 126.549 52.0478C128.445 51.6674 130.51 51.2618 132.217 50.3124C132.636 50.0798 132.261 49.4353 131.84 49.6711C130.372 50.4885 128.605 50.85 126.98 51.1989C125.273 51.5668 123.525 51.8843 121.78 51.9692C117.86 52.1609 113.902 51.9032 110.038 51.265C107.834 50.9003 105.41 50.5073 103.486 49.297C103.081 49.0423 102.707 49.6836 103.112 49.9383H103.115Z" fill="black"/>
<path d="M105.608 37.5739C107.978 37.8568 110.396 37.5739 112.634 36.7533C113.08 36.5899 112.889 35.8699 112.436 36.0366C110.248 36.8382 107.921 37.1086 105.608 36.8319C105.133 36.7722 105.139 37.5173 105.608 37.5739Z" fill="black"/>
<path d="M98.5412 60.9965C99.0096 62.5307 98.6135 64.3855 98.2143 65.8914C97.8119 67.3941 97.1045 68.812 97.0762 70.3902C97.0699 70.8712 97.8119 70.8712 97.8213 70.3902C97.8496 68.7523 98.6638 67.2307 99.0379 65.6588C99.3995 64.1403 99.7296 62.3295 99.2611 60.7985C99.1197 60.3426 98.3997 60.5375 98.5412 60.9965Z" fill="black"/>
<path d="M102.417 101.217C103.002 102.264 103.401 103.411 103.741 104.556C104.147 105.92 104.464 107.316 104.656 108.724C104.816 109.903 104.932 111.161 104.722 112.34C104.59 113.088 104.291 113.855 104.521 114.619C104.731 115.323 105.329 115.735 105.92 116.106C109.548 118.392 113.326 120.334 117.41 121.67C120.919 122.821 124.55 123.554 128.209 124.022C128.681 124.082 128.678 123.337 128.209 123.28C122.503 122.548 116.863 121.098 111.688 118.546C110.029 117.725 108.428 116.794 106.86 115.82C106.407 115.537 105.882 115.279 105.517 114.889C104.895 114.223 105.297 113.311 105.439 112.538C105.649 111.375 105.574 110.171 105.432 109.007C105.253 107.498 104.936 106.002 104.511 104.543C104.143 103.276 103.703 102 103.059 100.843C102.823 100.425 102.182 100.799 102.417 101.217Z" fill="black"/>
<path d="M105.659 116.437C104.367 120.983 100.653 149.795 100.225 154.495C100.184 154.969 100.926 154.966 100.97 154.495C101.388 149.861 105.102 121.119 106.379 116.636C106.508 116.173 105.791 115.978 105.659 116.437Z" fill="black"/>
<path d="M128.111 124.009C131.239 124.597 134.433 124.912 137.611 125.037C139.136 125.097 140.661 125.113 142.182 125.028C143.349 124.965 144.55 124.864 145.678 124.544C146.351 124.352 147.335 123.997 147.467 123.189C147.542 122.723 146.823 122.519 146.747 122.991C146.716 123.195 146.612 123.311 146.401 123.447C146.112 123.635 145.776 123.745 145.446 123.836C144.389 124.132 143.276 124.226 142.185 124.286C139.189 124.453 136.168 124.28 133.188 123.981C131.553 123.814 129.925 123.597 128.309 123.292C127.84 123.204 127.639 123.921 128.111 124.009Z" fill="black"/>
<path d="M119.604 101.715C121.886 98.8514 123.197 95.324 123.31 91.6615C123.323 91.1805 122.581 91.1805 122.565 91.6615C122.458 95.1134 121.232 98.4867 119.076 101.19C118.78 101.558 119.305 102.089 119.604 101.715Z" fill="black"/>
<path d="M143.146 110.784C144.674 114.802 145.884 118.98 146.749 123.187C146.846 123.655 147.563 123.457 147.469 122.989C146.601 118.782 145.391 114.604 143.863 110.586C143.696 110.143 142.976 110.338 143.146 110.784Z" fill="black"/>
<path d="M140.303 86.206C140.159 89.2775 139.857 92.4339 140.42 95.4802C140.504 95.9486 141.221 95.7506 141.136 95.2822C140.589 92.3081 140.904 89.2021 141.045 86.206C141.067 85.7282 140.322 85.7282 140.303 86.206Z" fill="black"/>
<path d="M103.043 88.0686C101.612 87.6033 91.0175 82.8499 92.4794 81.0642C92.9164 80.5361 93.5577 80.753 94.0639 80.9951C94.9819 81.4258 95.8495 81.9602 96.7172 82.4758C98.4652 83.5101 100.257 84.7613 102.25 85.258C104.281 85.7673 106.388 86.0283 108.466 86.2546C108.821 86.2955 108.906 85.8396 108.73 85.6196C108.038 84.7707 107.434 83.8496 106.931 82.8782C106.702 82.4286 106.469 81.9633 106.369 81.4666C106.34 81.3126 106.237 80.8756 106.422 80.7467C106.529 80.6712 106.834 80.7939 106.941 80.8253C107.758 81.0736 108.374 81.7496 108.915 82.3783C109.494 83.0511 109.997 83.7836 110.553 84.4752C111.792 86.0157 113.43 86.9714 114.976 88.1566C115.828 88.8105 116.627 89.5336 117.363 90.3132C117.627 90.5899 117.91 90.7062 118.255 90.8697C119.705 91.5582 121.245 92.2467 122.839 92.5139C123.307 92.5925 123.509 91.8757 123.037 91.7971C121.478 91.533 119.975 90.8697 118.557 90.1938C118.394 90.1152 118.208 90.0492 118.057 89.9486C117.755 89.7505 117.498 89.3795 117.234 89.1249C116.441 88.3578 115.586 87.6662 114.687 87.028C113.779 86.3804 112.829 85.7768 112.024 84.9971C111.279 84.2772 110.685 83.4315 110.056 82.6141C109.478 81.8659 108.862 81.1397 108.098 80.5738C107.604 80.2123 106.667 79.7784 106.064 80.0928C105.061 80.6115 105.803 82.2557 106.139 82.9505C106.699 84.0948 107.403 85.1574 108.205 86.1446C108.293 85.9339 108.381 85.7202 108.469 85.5095C106.507 85.2958 104.523 85.038 102.602 84.5758C100.436 84.0571 98.5092 82.6581 96.6135 81.5452C95.7647 81.0485 94.9064 80.5078 93.9853 80.1494C93.3094 79.8853 92.492 79.9733 91.9701 80.5266C91.1433 81.4006 91.8884 82.5701 92.5989 83.2334C93.498 84.076 94.614 84.7142 95.6735 85.3272C96.9939 86.0911 98.352 86.7922 99.729 87.4524C100.744 87.9397 101.779 88.4364 102.851 88.7854C103.31 88.9331 103.505 88.2163 103.049 88.0686H103.043Z" fill="black"/>
<path d="M92.8096 82.8029C91.3886 82.2276 89.867 83.5888 90.4644 85.0539C90.9705 86.3019 92.4387 87.0942 93.5516 87.7166C95.2115 88.6441 96.928 89.4866 98.6414 90.3134C99.4839 90.7221 100.361 91.2062 101.27 91.4546C101.732 91.5835 101.93 90.8636 101.468 90.7378C100.836 90.5681 100.235 90.2505 99.6474 89.9739C98.7451 89.5495 97.8554 89.1031 96.9689 88.6535C95.5133 87.9178 94.0106 87.2105 92.6619 86.2956C92.096 85.909 91.4515 85.4594 91.1686 84.8118C90.7536 83.8592 91.7596 83.1739 92.6147 83.5197C93.058 83.702 93.2498 82.9821 92.8128 82.8029H92.8096Z" fill="black"/>
<path d="M92.9864 86.6265C92.0559 86.2398 90.6066 86.2807 90.3456 87.5099C90.135 88.5222 91.1913 89.2987 91.9081 89.7985C93.5586 90.9523 95.3663 91.9143 97.1897 92.76C98.3089 93.2787 99.4626 93.7566 100.654 94.0772C101.119 94.1999 101.314 93.4831 100.855 93.3605C98.5981 92.7537 96.4603 91.6502 94.442 90.4965C93.6529 90.0469 92.8669 89.5816 92.1313 89.0472C91.7383 88.7642 91.2636 88.4216 91.1096 87.9469C90.9712 87.5224 91.3359 87.1923 91.7258 87.1295C92.0904 87.0729 92.4583 87.2081 92.7884 87.3464C93.2316 87.5287 93.4234 86.8088 92.9864 86.6265Z" fill="black"/>
<path d="M93.5202 90.1349C92.9794 90.1098 92.4544 90.1444 92.1086 90.6097C91.6936 91.1693 91.9231 91.6314 92.269 92.1501C92.8726 93.0555 93.8094 93.7503 94.7746 94.2344C96.5634 95.1273 98.4622 95.8283 100.326 96.5326C101.578 97.0073 102.826 97.4474 104.115 97.8089C105.385 98.1642 106.674 98.466 107.978 98.6861C109.462 98.9376 110.968 98.9281 112.452 99.145C114.712 99.4814 117.011 100.261 119.026 101.352C119.447 101.578 119.824 100.937 119.4 100.708C117.935 99.9121 116.322 99.3117 114.716 98.8684C113.323 98.4911 111.946 98.3402 110.509 98.2491C109.135 98.1579 107.774 97.9253 106.432 97.6266C103.222 96.9067 100.157 95.7309 97.1261 94.4702C96.3276 94.1401 95.5039 93.81 94.7525 93.3793C94.1741 93.0461 93.6145 92.6217 93.1744 92.1187C92.9952 91.908 92.5362 91.4176 92.6525 91.1284C92.7814 90.7951 93.2404 90.8643 93.517 90.88C93.9949 90.902 93.9949 90.157 93.517 90.1349H93.5202Z" fill="black"/>
<path d="M146.432 124.256C147.139 126.051 153.447 152.652 153.792 154.548C153.88 155.019 154.597 154.821 154.512 154.35C154.163 152.454 147.856 125.853 147.149 124.058C146.973 123.617 146.256 123.809 146.432 124.256Z" fill="black"/>
<path d="M73.7531 14.1441C73.6557 14.1441 73.5613 14.1096 73.489 14.0372L70.9897 11.5379C70.842 11.3902 70.842 11.1575 70.9897 11.0098C71.1343 10.8652 71.3701 10.8652 71.5147 11.0098L73.7531 13.2482L78.8241 8.17722C78.9718 8.02947 79.2045 8.02947 79.3522 8.17722C79.4968 8.32184 79.4968 8.55762 79.3522 8.70224L74.0141 14.0372C73.9417 14.1096 73.8474 14.1473 73.75 14.1473L73.7531 14.1441Z" fill="black"/>
<path d="M72.7745 70.7656C72.6487 70.7656 72.523 70.6996 72.457 70.5833L67.5526 62.3686C66.2322 62.4 61.2556 64.629 58.2973 66.0971C58.115 66.1851 57.8886 66.1128 57.7975 65.9274C57.7063 65.745 57.7817 65.5218 57.9672 65.4306C58.8066 65.0125 66.2385 61.3531 67.8387 61.6455C67.9456 61.6675 68.0399 61.7304 68.0934 61.8216L73.0983 70.1998C73.202 70.3758 73.1454 70.6053 72.9694 70.7091C72.9097 70.7468 72.8436 70.7625 72.7776 70.7625L72.7745 70.7656Z" fill="black"/>
</svg>
